<?xml version="1.0" encoding="UTF-8"?>
<svg xmlns="http://www.w3.org/2000/svg" xmlns:xlink="http://www.w3.org/1999/xlink" width="500px" height="500px" viewBox="0 0 45 45" version="1.1">
<g id="surface1">
<path style=" stroke:none;fill-rule:nonzero;fill:rgb(0.392157%,0.392157%,0%);fill-opacity:1;" d="M 2.773438 26.941406 C 2.882812 26.941406 2.988281 26.9375 3.097656 26.9375 C 3.324219 26.9375 3.546875 26.9375 3.769531 26.9375 C 4.113281 26.9375 4.453125 26.933594 4.796875 26.929688 C 5.011719 26.929688 5.230469 26.929688 5.453125 26.929688 C 5.601562 26.925781 5.601562 26.925781 5.757812 26.925781 C 6.488281 26.933594 7.097656 27.070312 7.640625 27.582031 C 7.871094 27.835938 8.023438 28.082031 8.175781 28.386719 C 8.242188 28.386719 8.308594 28.390625 8.375 28.390625 C 10.679688 28.425781 12.527344 28.683594 14.40625 30.089844 C 15.734375 31.074219 17.113281 31.386719 18.738281 31.394531 C 18.96875 31.398438 19.199219 31.402344 19.429688 31.402344 C 19.785156 31.40625 20.148438 31.410156 20.507812 31.410156 C 20.859375 31.414062 21.207031 31.417969 21.558594 31.425781 C 21.71875 31.425781 21.71875 31.425781 21.878906 31.425781 C 23.222656 31.445312 24.308594 31.828125 25.289062 32.753906 C 25.976562 33.464844 26.394531 34.164062 26.457031 35.15625 C 27.132812 35.128906 27.691406 35.003906 28.316406 34.75 C 28.402344 34.714844 28.480469 34.683594 28.566406 34.652344 C 28.839844 34.542969 29.113281 34.433594 29.382812 34.328125 C 29.574219 34.25 29.765625 34.175781 29.957031 34.097656 C 30.355469 33.941406 30.75 33.789062 31.144531 33.628906 C 31.691406 33.414062 32.238281 33.199219 32.785156 32.984375 C 32.867188 32.953125 32.953125 32.917969 33.039062 32.886719 C 33.207031 32.816406 33.375 32.753906 33.542969 32.691406 C 33.960938 32.527344 34.375 32.363281 34.789062 32.199219 C 35.449219 31.941406 36.105469 31.683594 36.765625 31.429688 C 36.84375 31.398438 36.925781 31.363281 37.007812 31.332031 C 37.386719 31.1875 37.765625 31.039062 38.144531 30.890625 C 38.28125 30.839844 38.417969 30.785156 38.558594 30.730469 C 38.625 30.707031 38.691406 30.679688 38.761719 30.652344 C 39.121094 30.511719 39.484375 30.367188 39.847656 30.21875 C 39.925781 30.1875 40.003906 30.15625 40.082031 30.121094 C 40.234375 30.0625 40.386719 30 40.535156 29.9375 C 41.503906 29.542969 42.417969 29.394531 43.417969 29.792969 C 44.128906 30.148438 44.53125 30.644531 44.902344 31.332031 C 45.121094 31.996094 45.121094 32.925781 44.863281 33.574219 C 44.300781 34.605469 43.386719 35.054688 42.371094 35.558594 C 42.277344 35.605469 42.1875 35.648438 42.09375 35.699219 C 41.902344 35.792969 41.703125 35.890625 41.511719 35.988281 C 41.222656 36.132812 40.929688 36.277344 40.640625 36.421875 C 39.644531 36.917969 38.644531 37.410156 37.636719 37.886719 C 36.824219 38.273438 36.023438 38.671875 35.222656 39.074219 C 35.113281 39.125 35.113281 39.125 35.003906 39.183594 C 34.234375 39.566406 33.464844 39.957031 32.699219 40.359375 C 32.644531 40.386719 32.582031 40.421875 32.519531 40.453125 C 32.210938 40.617188 31.902344 40.78125 31.597656 40.949219 C 29.003906 42.351562 29.003906 42.351562 27.683594 42.539062 C 27.582031 42.554688 27.582031 42.554688 27.480469 42.566406 C 25.683594 42.832031 23.875 42.894531 22.058594 42.96875 C 21.617188 42.988281 21.175781 43.003906 20.738281 43.027344 C 19.902344 43.058594 19.070312 43.097656 18.238281 43.128906 C 17.011719 43.179688 15.792969 43.234375 14.570312 43.285156 C 14.480469 43.289062 14.390625 43.292969 14.296875 43.292969 C 14.117188 43.304688 13.9375 43.3125 13.757812 43.316406 C 13.238281 43.339844 12.710938 43.363281 12.191406 43.386719 C 11.863281 43.398438 11.539062 43.410156 11.214844 43.425781 C 11.066406 43.433594 10.917969 43.4375 10.765625 43.445312 C 10.371094 43.460938 9.980469 43.480469 9.585938 43.496094 C 9.402344 43.503906 9.222656 43.511719 9.042969 43.519531 C 8.878906 43.527344 8.878906 43.527344 8.707031 43.535156 C 8.609375 43.539062 8.511719 43.542969 8.414062 43.542969 C 8.167969 43.574219 8.167969 43.574219 8.015625 43.75 C 7.910156 43.917969 7.910156 43.917969 7.828125 44.109375 C 7.632812 44.503906 7.28125 44.761719 6.875 44.917969 C 6.597656 45 6.371094 45.023438 6.082031 45.027344 C 5.984375 45.027344 5.886719 45.027344 5.785156 45.027344 C 5.679688 45.027344 5.578125 45.027344 5.46875 45.027344 C 5.363281 45.027344 5.253906 45.027344 5.136719 45.03125 C 4.910156 45.03125 4.679688 45.03125 4.449219 45.03125 C 4.097656 45.03125 3.75 45.035156 3.398438 45.039062 C 3.175781 45.042969 2.953125 45.042969 2.726562 45.042969 C 2.574219 45.042969 2.574219 45.042969 2.410156 45.042969 C 1.707031 45.042969 1.257812 44.933594 0.683594 44.503906 C 0.636719 44.457031 0.589844 44.40625 0.542969 44.359375 C 0.472656 44.289062 0.472656 44.289062 0.398438 44.214844 C 0.0625 43.761719 -0.03125 43.34375 -0.0351562 42.785156 C -0.0351562 42.722656 -0.0351562 42.660156 -0.0351562 42.601562 C -0.0390625 42.398438 -0.0351562 42.195312 -0.0351562 41.996094 C -0.0351562 41.851562 -0.0390625 41.703125 -0.0390625 41.558594 C -0.0390625 41.164062 -0.0390625 40.773438 -0.0390625 40.378906 C -0.0390625 40.050781 -0.0390625 39.722656 -0.0390625 39.394531 C -0.0429688 38.617188 -0.0429688 37.839844 -0.0390625 37.0625 C -0.0390625 36.261719 -0.0390625 35.464844 -0.0429688 34.664062 C -0.0429688 33.976562 -0.0429688 33.289062 -0.0429688 32.601562 C -0.0429688 32.191406 -0.0429688 31.78125 -0.0429688 31.371094 C -0.046875 30.984375 -0.046875 30.597656 -0.0429688 30.214844 C -0.0429688 30.074219 -0.0429688 29.929688 -0.046875 29.789062 C -0.0507812 28.964844 -0.0429688 28.320312 0.519531 27.667969 C 0.574219 27.621094 0.628906 27.574219 0.683594 27.527344 C 0.742188 27.476562 0.796875 27.429688 0.851562 27.378906 C 1.484375 26.957031 2.03125 26.941406 2.773438 26.941406 Z M 2.773438 26.941406 "/>
<path style=" stroke:none;fill-rule:nonzero;fill:rgb(0.392157%,0%,0%);fill-opacity:1;" d="M 29.089844 0.351562 C 29.730469 0.824219 30.199219 1.566406 30.675781 2.199219 C 30.71875 2.253906 30.757812 2.3125 30.800781 2.371094 C 32.691406 4.90625 34.113281 7.8125 34.453125 10.988281 C 34.464844 11.097656 34.464844 11.097656 34.480469 11.214844 C 34.550781 11.945312 34.554688 12.671875 34.550781 13.40625 C 34.550781 13.613281 34.550781 13.816406 34.550781 14.023438 C 34.550781 14.160156 34.550781 14.292969 34.550781 14.429688 C 34.550781 14.496094 34.550781 14.558594 34.550781 14.628906 C 34.550781 14.945312 34.542969 15.25 34.503906 15.5625 C 34.414062 16.097656 34.414062 16.097656 34.539062 16.597656 C 34.683594 16.746094 34.683594 16.746094 34.964844 16.902344 C 35.070312 16.972656 35.175781 17.042969 35.28125 17.113281 C 35.335938 17.144531 35.386719 17.179688 35.441406 17.210938 C 35.671875 17.363281 35.875 17.542969 36.078125 17.726562 C 36.144531 17.785156 36.210938 17.839844 36.277344 17.902344 C 36.757812 18.402344 37.007812 18.894531 37.21875 19.542969 C 37.246094 19.617188 37.269531 19.695312 37.300781 19.777344 C 37.355469 19.9375 37.410156 20.101562 37.460938 20.265625 C 37.546875 20.511719 37.628906 20.757812 37.714844 21.003906 C 37.765625 21.164062 37.820312 21.324219 37.875 21.480469 C 37.898438 21.554688 37.921875 21.628906 37.949219 21.699219 C 38.382812 23.011719 38.285156 24.082031 38.074219 25.425781 C 38.058594 25.519531 38.042969 25.605469 38.035156 25.699219 C 37.820312 26.992188 37.820312 26.992188 37.363281 27.394531 C 36.945312 27.683594 36.539062 27.820312 36.027344 27.746094 C 35.285156 27.558594 34.769531 26.996094 34.289062 26.425781 C 33.539062 25.566406 32.855469 25.351562 31.730469 25.222656 C 31.707031 25.292969 31.683594 25.355469 31.660156 25.425781 C 31.550781 25.671875 31.457031 25.78125 31.25 25.949219 C 31.199219 25.996094 31.144531 26.039062 31.09375 26.082031 C 30.761719 26.316406 30.449219 26.289062 30.058594 26.277344 C 30.0625 26.347656 30.066406 26.414062 30.070312 26.484375 C 30.089844 27.085938 30.074219 27.542969 29.707031 28.035156 C 29.128906 28.597656 28.550781 28.59375 27.785156 28.589844 C 27.644531 28.59375 27.644531 28.59375 27.5 28.597656 C 26.832031 28.597656 26.378906 28.539062 25.855469 28.085938 C 25.503906 27.675781 25.46875 27.417969 25.476562 26.871094 C 25.480469 26.761719 25.480469 26.652344 25.480469 26.535156 C 25.484375 26.453125 25.484375 26.367188 25.488281 26.277344 C 25.386719 26.289062 25.285156 26.296875 25.179688 26.304688 C 24.726562 26.304688 24.421875 26.128906 24.082031 25.839844 C 23.9375 25.667969 23.839844 25.507812 23.730469 25.3125 C 23.585938 25.320312 23.441406 25.332031 23.296875 25.339844 C 23.214844 25.34375 23.136719 25.351562 23.054688 25.355469 C 22.121094 25.5 21.6875 25.894531 21.050781 26.585938 C 20.050781 27.675781 20.050781 27.675781 19.335938 27.773438 C 18.882812 27.785156 18.476562 27.648438 18.113281 27.378906 C 17.558594 26.828125 17.507812 25.894531 17.386719 25.160156 C 17.371094 25.074219 17.355469 24.988281 17.339844 24.894531 C 17.292969 24.628906 17.253906 24.355469 17.226562 24.082031 C 17.21875 23.992188 17.207031 23.902344 17.199219 23.808594 C 17.140625 22.871094 17.433594 22.058594 17.734375 21.183594 C 17.820312 20.925781 17.902344 20.671875 17.988281 20.417969 C 18.042969 20.253906 18.097656 20.089844 18.152344 19.925781 C 18.191406 19.808594 18.191406 19.808594 18.230469 19.695312 C 18.652344 18.472656 19.273438 17.746094 20.292969 16.988281 C 20.429688 16.890625 20.429688 16.890625 20.566406 16.785156 C 20.644531 16.738281 20.722656 16.6875 20.800781 16.636719 C 21.03125 16.449219 21.03125 16.449219 21.046875 16.152344 C 21.042969 16.042969 21.03125 15.933594 21.027344 15.816406 C 21.023438 15.757812 21.019531 15.699219 21.019531 15.636719 C 21.011719 15.507812 21.003906 15.378906 20.996094 15.246094 C 20.976562 14.90625 20.960938 14.566406 20.949219 14.226562 C 20.945312 14.160156 20.941406 14.089844 20.9375 14.019531 C 20.832031 11.480469 21.203125 8.925781 22.238281 6.589844 C 22.261719 6.535156 22.285156 6.476562 22.3125 6.417969 C 23.152344 4.484375 24.324219 2.789062 25.667969 1.171875 C 25.789062 1.027344 25.90625 0.882812 26.019531 0.730469 C 26.792969 -0.203125 28.097656 -0.21875 29.089844 0.351562 Z M 29.089844 0.351562 "/>
<path style=" stroke:none;fill-rule:nonzero;fill:rgb(99.607843%,87.45098%,69.411765%);fill-opacity:1;" d="M 8.261719 29.972656 C 10.539062 29.972656 10.539062 29.972656 11.339844 30.234375 C 11.433594 30.261719 11.527344 30.292969 11.625 30.324219 C 12.339844 30.574219 12.917969 30.941406 13.535156 31.378906 C 15 32.382812 16.367188 32.910156 18.167969 32.902344 C 18.289062 32.902344 18.414062 32.902344 18.535156 32.902344 C 19.046875 32.90625 19.554688 32.902344 20.066406 32.902344 C 20.386719 32.902344 20.699219 32.902344 21.015625 32.90625 C 21.191406 32.90625 21.363281 32.902344 21.539062 32.902344 C 22.644531 32.910156 23.535156 33.199219 24.335938 33.980469 C 24.660156 34.347656 24.960938 34.738281 24.960938 35.246094 C 24.894531 35.246094 24.824219 35.246094 24.757812 35.246094 C 24.121094 35.253906 23.488281 35.261719 22.855469 35.269531 C 22.527344 35.273438 22.199219 35.277344 21.875 35.28125 C 21.558594 35.285156 21.242188 35.289062 20.929688 35.292969 C 20.75 35.296875 20.574219 35.296875 20.394531 35.300781 C 18.59375 35.324219 16.855469 35.746094 15.476562 36.964844 C 15.265625 37.171875 15.265625 37.171875 15.242188 37.492188 C 15.273438 37.792969 15.273438 37.792969 15.4375 38.007812 C 15.710938 38.1875 15.84375 38.179688 16.171875 38.144531 C 16.394531 38.03125 16.589844 37.914062 16.800781 37.777344 C 18.207031 36.890625 19.488281 36.710938 21.125 36.714844 C 21.378906 36.714844 21.632812 36.710938 21.886719 36.710938 C 22.609375 36.707031 23.328125 36.707031 24.050781 36.707031 C 24.496094 36.703125 24.9375 36.703125 25.382812 36.699219 C 25.550781 36.699219 25.714844 36.699219 25.882812 36.699219 C 26.839844 36.699219 27.660156 36.65625 28.566406 36.300781 C 28.644531 36.269531 28.726562 36.238281 28.808594 36.207031 C 29.050781 36.121094 29.292969 36.027344 29.53125 35.929688 C 29.664062 35.878906 29.664062 35.878906 29.796875 35.824219 C 30.082031 35.714844 30.367188 35.597656 30.652344 35.484375 C 30.851562 35.40625 31.054688 35.324219 31.253906 35.246094 C 31.660156 35.089844 32.066406 34.925781 32.472656 34.765625 C 33.203125 34.480469 33.933594 34.195312 34.660156 33.910156 C 35.019531 33.769531 35.382812 33.628906 35.742188 33.488281 C 35.8125 33.460938 35.886719 33.433594 35.957031 33.402344 C 36.550781 33.171875 37.144531 32.941406 37.730469 32.714844 C 37.824219 32.675781 37.917969 32.640625 38.011719 32.605469 C 38.453125 32.429688 38.894531 32.253906 39.339844 32.082031 C 39.722656 31.929688 40.105469 31.78125 40.492188 31.632812 C 40.679688 31.558594 40.867188 31.484375 41.050781 31.410156 C 41.152344 31.371094 41.253906 31.332031 41.363281 31.289062 C 41.445312 31.257812 41.53125 31.222656 41.621094 31.191406 C 42.066406 31.03125 42.394531 31.074219 42.820312 31.257812 C 43.15625 31.445312 43.339844 31.636719 43.503906 31.992188 C 43.574219 32.542969 43.480469 32.945312 43.152344 33.398438 C 42.929688 33.582031 42.683594 33.699219 42.425781 33.820312 C 42.355469 33.855469 42.285156 33.890625 42.210938 33.925781 C 41.738281 34.15625 41.257812 34.386719 40.78125 34.613281 C 39.691406 35.132812 38.605469 35.667969 37.527344 36.207031 C 37.347656 36.292969 37.171875 36.382812 36.992188 36.472656 C 36.625 36.65625 36.253906 36.839844 35.886719 37.027344 C 35.417969 37.257812 34.953125 37.492188 34.488281 37.722656 C 34.121094 37.902344 33.753906 38.089844 33.390625 38.269531 C 33.214844 38.355469 33.046875 38.441406 32.875 38.527344 C 31.882812 39.019531 30.90625 39.527344 29.941406 40.074219 C 28.082031 41.113281 26.066406 41.242188 23.980469 41.316406 C 23.699219 41.324219 23.417969 41.335938 23.132812 41.347656 C 22.957031 41.351562 22.785156 41.359375 22.609375 41.363281 C 22.121094 41.382812 21.636719 41.417969 21.152344 41.464844 C 20.785156 41.496094 20.410156 41.511719 20.039062 41.527344 C 19.957031 41.53125 19.875 41.535156 19.792969 41.539062 C 19.53125 41.550781 19.269531 41.558594 19.011719 41.574219 C 18.832031 41.582031 18.652344 41.585938 18.46875 41.597656 C 17.300781 41.644531 16.132812 41.691406 14.964844 41.71875 C 14.355469 41.734375 13.75 41.769531 13.144531 41.816406 C 12.613281 41.851562 12.085938 41.867188 11.558594 41.886719 C 11.453125 41.886719 11.347656 41.890625 11.242188 41.898438 C 10.246094 41.929688 9.257812 41.925781 8.261719 41.925781 C 8.261719 37.980469 8.261719 34.035156 8.261719 29.972656 Z M 8.261719 29.972656 "/>
<path style=" stroke:none;fill-rule:nonzero;fill:rgb(94.509804%,25.882353%,20.392157%);fill-opacity:1;" d="M 23.644531 7.292969 C 23.972656 7.347656 24.238281 7.449219 24.542969 7.585938 C 26.589844 8.4375 28.832031 8.425781 30.882812 7.605469 C 31.050781 7.535156 31.214844 7.460938 31.378906 7.386719 C 31.640625 7.292969 31.640625 7.292969 31.902344 7.382812 C 32.003906 7.574219 32.085938 7.757812 32.160156 7.960938 C 32.183594 8.019531 32.207031 8.082031 32.230469 8.140625 C 33.378906 11.226562 33.191406 14.644531 32.695312 17.839844 C 32.675781 17.957031 32.675781 17.957031 32.660156 18.082031 C 32.308594 20.363281 31.402344 22.800781 30.234375 24.785156 C 30.144531 24.785156 30.0625 24.785156 29.972656 24.785156 C 29.972656 24.695312 29.972656 24.695312 29.972656 24.601562 C 29.96875 24.023438 29.960938 23.445312 29.953125 22.871094 C 29.949219 22.574219 29.949219 22.277344 29.949219 21.980469 C 29.945312 21.640625 29.941406 21.300781 29.933594 20.957031 C 29.933594 20.855469 29.933594 20.746094 29.933594 20.640625 C 29.925781 19.949219 29.855469 19.269531 29.386719 18.730469 C 28.792969 18.175781 28.226562 18.054688 27.4375 18.074219 C 26.832031 18.140625 26.394531 18.425781 26.015625 18.894531 C 25.574219 19.574219 25.511719 20.160156 25.515625 20.957031 C 25.511719 21.066406 25.511719 21.175781 25.507812 21.289062 C 25.503906 21.582031 25.503906 21.871094 25.503906 22.15625 C 25.503906 22.453125 25.5 22.753906 25.496094 23.046875 C 25.492188 23.628906 25.488281 24.207031 25.488281 24.785156 C 25.402344 24.785156 25.316406 24.785156 25.222656 24.785156 C 24.042969 22.429688 23.207031 20.085938 22.738281 17.488281 C 22.722656 17.414062 22.707031 17.339844 22.691406 17.257812 C 22.480469 16.011719 22.480469 14.738281 22.476562 13.480469 C 22.476562 13.40625 22.476562 13.332031 22.476562 13.261719 C 22.480469 11.203125 22.683594 9.148438 23.644531 7.292969 Z M 23.644531 7.292969 "/>
<path style=" stroke:none;fill-rule:nonzero;fill:rgb(0%,73.333333%,82.745098%);fill-opacity:1;" d="M 2.414062 28.460938 C 2.496094 28.460938 2.574219 28.460938 2.660156 28.457031 C 2.746094 28.457031 2.835938 28.457031 2.925781 28.457031 C 3.0625 28.457031 3.0625 28.457031 3.203125 28.457031 C 3.394531 28.457031 3.582031 28.457031 3.777344 28.457031 C 4.070312 28.457031 4.363281 28.453125 4.65625 28.449219 C 4.839844 28.449219 5.027344 28.449219 5.210938 28.449219 C 5.300781 28.449219 5.386719 28.445312 5.480469 28.445312 C 6.25 28.449219 6.25 28.449219 6.589844 28.738281 C 6.800781 29.054688 6.792969 29.191406 6.792969 29.5625 C 6.792969 29.621094 6.792969 29.675781 6.792969 29.738281 C 6.792969 29.925781 6.792969 30.117188 6.792969 30.308594 C 6.792969 30.445312 6.792969 30.582031 6.792969 30.722656 C 6.796875 31.09375 6.796875 31.464844 6.796875 31.835938 C 6.796875 32.148438 6.796875 32.460938 6.800781 32.769531 C 6.800781 33.503906 6.800781 34.238281 6.800781 34.972656 C 6.800781 35.726562 6.800781 36.484375 6.804688 37.238281 C 6.804688 37.890625 6.808594 38.539062 6.808594 39.1875 C 6.808594 39.578125 6.808594 39.964844 6.8125 40.355469 C 6.8125 40.714844 6.8125 41.082031 6.8125 41.445312 C 6.8125 41.582031 6.8125 41.714844 6.8125 41.847656 C 6.816406 42.03125 6.8125 42.214844 6.8125 42.394531 C 6.8125 42.496094 6.8125 42.601562 6.8125 42.707031 C 6.757812 43.035156 6.648438 43.179688 6.417969 43.417969 C 6.207031 43.523438 6.066406 43.519531 5.832031 43.523438 C 5.746094 43.527344 5.664062 43.527344 5.574219 43.527344 C 5.1875 43.535156 4.800781 43.539062 4.410156 43.542969 C 4.207031 43.542969 4.003906 43.546875 3.796875 43.550781 C 3.5 43.554688 3.207031 43.558594 2.910156 43.5625 C 2.820312 43.5625 2.730469 43.566406 2.636719 43.566406 C 2.550781 43.566406 2.464844 43.566406 2.375 43.566406 C 2.300781 43.566406 2.226562 43.570312 2.148438 43.570312 C 1.894531 43.496094 1.738281 43.386719 1.578125 43.175781 C 1.375 42.703125 1.433594 42.148438 1.4375 41.644531 C 1.4375 41.503906 1.4375 41.371094 1.433594 41.230469 C 1.433594 40.859375 1.433594 40.488281 1.4375 40.117188 C 1.4375 39.730469 1.4375 39.339844 1.4375 38.949219 C 1.4375 38.296875 1.4375 37.644531 1.441406 36.992188 C 1.445312 36.238281 1.445312 35.484375 1.445312 34.730469 C 1.441406 34.003906 1.441406 33.277344 1.445312 32.550781 C 1.445312 32.242188 1.445312 31.929688 1.445312 31.621094 C 1.441406 31.261719 1.445312 30.894531 1.449219 30.53125 C 1.449219 30.398438 1.449219 30.261719 1.449219 30.132812 C 1.445312 29.949219 1.449219 29.765625 1.449219 29.582031 C 1.449219 29.480469 1.449219 29.378906 1.449219 29.273438 C 1.503906 28.945312 1.617188 28.800781 1.847656 28.566406 C 2.054688 28.460938 2.183594 28.464844 2.414062 28.460938 Z M 2.414062 28.460938 "/>
<path style=" stroke:none;fill-rule:nonzero;fill:rgb(0.784314%,0.392157%,0.392157%);fill-opacity:1;" d="M 29.355469 10.898438 C 30.097656 11.410156 30.515625 12.0625 30.761719 12.917969 C 30.863281 13.839844 30.691406 14.558594 30.167969 15.316406 C 29.574219 16.046875 28.824219 16.421875 27.894531 16.554688 C 27.058594 16.597656 26.300781 16.269531 25.664062 15.738281 C 25.359375 15.425781 25.152344 15.066406 24.960938 14.675781 C 24.929688 14.609375 24.894531 14.542969 24.863281 14.476562 C 24.628906 13.753906 24.683594 12.851562 25.003906 12.167969 C 25.914062 10.621094 27.730469 9.984375 29.355469 10.898438 Z M 29.355469 10.898438 "/>
<path style=" stroke:none;fill-rule:nonzero;fill:rgb(77.254902%,11.372549%,11.372549%);fill-opacity:1;" d="M 31.902344 7.382812 C 32.003906 7.574219 32.085938 7.757812 32.160156 7.960938 C 32.183594 8.019531 32.207031 8.082031 32.230469 8.140625 C 33.378906 11.226562 33.191406 14.644531 32.695312 17.839844 C 32.683594 17.921875 32.671875 18 32.660156 18.082031 C 32.308594 20.363281 31.402344 22.800781 30.234375 24.785156 C 30.144531 24.785156 30.0625 24.785156 29.972656 24.785156 C 29.972656 23.191406 29.972656 21.59375 29.972656 19.949219 C 30 19.949219 30.027344 19.949219 30.058594 19.949219 C 30.089844 20.503906 30.117188 21.050781 30.144531 21.621094 C 30.265625 21.238281 30.382812 20.859375 30.496094 20.480469 C 30.515625 20.417969 30.535156 20.359375 30.550781 20.296875 C 30.800781 19.433594 30.992188 18.566406 31.136719 17.683594 C 31.15625 17.550781 31.15625 17.550781 31.175781 17.417969 C 31.382812 16.082031 31.402344 14.753906 31.402344 13.410156 C 31.402344 13.316406 31.40625 13.230469 31.40625 13.136719 C 31.40625 11.832031 31.363281 10.585938 31.027344 9.316406 C 31.007812 9.253906 30.988281 9.1875 30.976562 9.121094 C 30.902344 8.847656 30.824219 8.578125 30.738281 8.308594 C 30.675781 8.085938 30.675781 8.085938 30.675781 7.824219 C 30.613281 7.792969 30.558594 7.761719 30.496094 7.734375 C 30.683594 7.660156 30.867188 7.582031 31.050781 7.507812 C 31.207031 7.449219 31.207031 7.449219 31.363281 7.382812 C 31.640625 7.292969 31.640625 7.292969 31.902344 7.382812 Z M 31.902344 7.382812 "/>
<path style=" stroke:none;fill-rule:nonzero;fill:rgb(0%,50.588235%,55.294118%);fill-opacity:1;" d="M 2.019531 28.476562 C 2.601562 28.472656 3.183594 28.464844 3.761719 28.460938 C 3.960938 28.460938 4.15625 28.457031 4.355469 28.457031 C 4.636719 28.453125 4.921875 28.453125 5.207031 28.449219 C 5.292969 28.449219 5.382812 28.449219 5.472656 28.449219 C 6.25 28.449219 6.25 28.449219 6.589844 28.738281 C 6.800781 29.054688 6.792969 29.191406 6.792969 29.5625 C 6.792969 29.621094 6.792969 29.675781 6.792969 29.738281 C 6.792969 29.925781 6.792969 30.117188 6.792969 30.308594 C 6.792969 30.445312 6.792969 30.582031 6.792969 30.722656 C 6.796875 31.09375 6.796875 31.464844 6.796875 31.835938 C 6.796875 32.148438 6.796875 32.460938 6.800781 32.769531 C 6.800781 33.503906 6.800781 34.238281 6.800781 34.972656 C 6.800781 35.726562 6.800781 36.484375 6.804688 37.238281 C 6.804688 37.890625 6.808594 38.539062 6.808594 39.1875 C 6.808594 39.578125 6.808594 39.964844 6.8125 40.355469 C 6.8125 40.714844 6.8125 41.082031 6.8125 41.445312 C 6.8125 41.582031 6.8125 41.714844 6.8125 41.847656 C 6.816406 42.03125 6.8125 42.214844 6.8125 42.394531 C 6.8125 42.496094 6.8125 42.601562 6.8125 42.707031 C 6.757812 43.035156 6.648438 43.179688 6.417969 43.417969 C 6.160156 43.542969 5.9375 43.515625 5.65625 43.511719 C 5.554688 43.511719 5.449219 43.507812 5.339844 43.507812 C 5.261719 43.507812 5.179688 43.503906 5.097656 43.503906 C 5.113281 43.429688 5.128906 43.355469 5.140625 43.28125 C 5.183594 42.976562 5.199219 42.691406 5.199219 42.382812 C 5.199219 42.324219 5.199219 42.265625 5.199219 42.207031 C 5.199219 42.015625 5.199219 41.824219 5.199219 41.628906 C 5.199219 41.492188 5.199219 41.355469 5.199219 41.21875 C 5.199219 40.84375 5.199219 40.46875 5.199219 40.09375 C 5.199219 39.703125 5.199219 39.308594 5.199219 38.917969 C 5.199219 38.261719 5.199219 37.601562 5.199219 36.945312 C 5.199219 36.183594 5.199219 35.421875 5.199219 34.660156 C 5.199219 34.007812 5.199219 33.355469 5.199219 32.703125 C 5.199219 32.3125 5.199219 31.921875 5.199219 31.53125 C 5.199219 31.167969 5.199219 30.800781 5.199219 30.433594 C 5.199219 30.300781 5.199219 30.164062 5.199219 30.027344 C 5.199219 29.84375 5.199219 29.660156 5.199219 29.480469 C 5.199219 29.375 5.199219 29.273438 5.199219 29.167969 C 5.199219 28.910156 5.199219 28.910156 5.097656 28.652344 C 4.082031 28.621094 3.066406 28.59375 2.019531 28.566406 C 2.019531 28.535156 2.019531 28.503906 2.019531 28.476562 Z M 2.019531 28.476562 "/>
<path style=" stroke:none;fill-rule:nonzero;fill:rgb(98.823529%,85.098039%,0%);fill-opacity:1;" d="M 27.949219 1.503906 C 28.371094 1.691406 28.636719 2.105469 28.917969 2.460938 C 28.972656 2.535156 28.972656 2.535156 29.035156 2.609375 C 29.609375 3.332031 30.121094 4.082031 30.613281 4.859375 C 30.664062 4.941406 30.714844 5.019531 30.769531 5.105469 C 30.816406 5.179688 30.863281 5.253906 30.910156 5.332031 C 30.949219 5.398438 30.992188 5.464844 31.035156 5.535156 C 31.113281 5.714844 31.113281 5.714844 31.027344 5.976562 C 29.628906 6.832031 27.816406 7.003906 26.230469 6.667969 C 25.554688 6.5 24.949219 6.230469 24.347656 5.886719 C 24.910156 4.664062 25.726562 3.613281 26.542969 2.550781 C 26.582031 2.503906 26.617188 2.453125 26.652344 2.402344 C 27.425781 1.402344 27.425781 1.402344 27.949219 1.503906 Z M 27.949219 1.503906 "/>
<path style=" stroke:none;fill-rule:nonzero;fill:rgb(60.784314%,60.784314%,60.784314%);fill-opacity:1;" d="M 21.445312 18.191406 C 21.464844 18.285156 21.480469 18.371094 21.5 18.464844 C 21.84375 20.101562 22.316406 21.6875 22.914062 23.246094 C 23.027344 23.554688 23.027344 23.554688 23.027344 23.730469 C 22.890625 23.761719 22.890625 23.761719 22.746094 23.789062 C 22.621094 23.816406 22.496094 23.84375 22.375 23.875 C 22.3125 23.886719 22.253906 23.898438 22.191406 23.910156 C 21.257812 24.128906 20.644531 24.761719 19.996094 25.433594 C 19.855469 25.574219 19.714844 25.71875 19.574219 25.863281 C 19.515625 25.925781 19.453125 25.988281 19.390625 26.054688 C 19.246094 26.191406 19.246094 26.191406 19.160156 26.191406 C 19.144531 26.097656 19.144531 26.097656 19.128906 26 C 19.082031 25.71875 19.035156 25.433594 18.988281 25.152344 C 18.972656 25.054688 18.957031 24.957031 18.941406 24.855469 C 18.925781 24.761719 18.910156 24.664062 18.894531 24.566406 C 18.878906 24.484375 18.863281 24.394531 18.847656 24.304688 C 18.8125 24.074219 18.8125 24.074219 18.722656 23.816406 C 18.683594 23.25 18.792969 22.808594 18.980469 22.277344 C 19.003906 22.199219 19.03125 22.121094 19.058594 22.039062 C 19.113281 21.878906 19.167969 21.714844 19.226562 21.550781 C 19.3125 21.300781 19.398438 21.050781 19.480469 20.804688 C 19.539062 20.644531 19.59375 20.488281 19.644531 20.324219 C 19.671875 20.253906 19.699219 20.179688 19.722656 20.105469 C 19.953125 19.449219 20.25 18.992188 20.796875 18.558594 C 20.925781 18.453125 20.925781 18.453125 21.050781 18.347656 C 21.269531 18.191406 21.269531 18.191406 21.445312 18.191406 Z M 21.445312 18.191406 "/>
<path style=" stroke:none;fill-rule:nonzero;fill:rgb(43.137255%,43.137255%,43.137255%);fill-opacity:1;" d="M 34.101562 18.191406 C 34.285156 18.304688 34.457031 18.421875 34.628906 18.542969 C 34.726562 18.609375 34.726562 18.609375 34.824219 18.675781 C 35.433594 19.144531 35.644531 19.703125 35.871094 20.417969 C 35.960938 20.699219 36.058594 20.972656 36.160156 21.253906 C 36.230469 21.46875 36.308594 21.683594 36.378906 21.902344 C 36.417969 22.003906 36.453125 22.105469 36.492188 22.210938 C 36.730469 22.933594 36.761719 23.507812 36.652344 24.257812 C 36.640625 24.335938 36.628906 24.417969 36.621094 24.5 C 36.589844 24.71875 36.558594 24.933594 36.523438 25.148438 C 36.511719 25.21875 36.503906 25.292969 36.492188 25.367188 C 36.480469 25.433594 36.46875 25.503906 36.457031 25.574219 C 36.449219 25.636719 36.441406 25.699219 36.429688 25.761719 C 36.386719 25.925781 36.386719 25.925781 36.210938 26.191406 C 36.160156 26.136719 36.105469 26.082031 36.050781 26.027344 C 35.855469 25.824219 35.660156 25.621094 35.460938 25.421875 C 35.375 25.335938 35.292969 25.246094 35.207031 25.160156 C 34.511719 24.441406 33.988281 24.027344 33.003906 23.839844 C 32.894531 23.816406 32.785156 23.796875 32.675781 23.773438 C 32.597656 23.761719 32.511719 23.746094 32.433594 23.730469 C 32.574219 23.304688 32.714844 22.882812 32.859375 22.464844 C 33.304688 21.179688 33.742188 19.917969 33.960938 18.570312 C 34.011719 18.28125 34.011719 18.28125 34.101562 18.191406 Z M 34.101562 18.191406 "/>
<path style=" stroke:none;fill-rule:nonzero;fill:rgb(60.784314%,60.784314%,60.784314%);fill-opacity:1;" d="M 27.730469 19.449219 C 28.121094 19.527344 28.234375 19.640625 28.476562 19.949219 C 28.519531 20.199219 28.53125 20.394531 28.527344 20.644531 C 28.527344 20.714844 28.527344 20.785156 28.527344 20.855469 C 28.527344 21.078125 28.523438 21.308594 28.519531 21.535156 C 28.519531 21.6875 28.519531 21.847656 28.519531 22.003906 C 28.515625 22.414062 28.511719 22.828125 28.503906 23.242188 C 28.503906 23.664062 28.5 24.082031 28.496094 24.503906 C 28.496094 25.332031 28.484375 26.15625 28.476562 26.980469 C 27.984375 26.980469 27.488281 26.980469 26.980469 26.980469 C 26.972656 26.085938 26.964844 25.191406 26.957031 24.292969 C 26.957031 23.878906 26.953125 23.460938 26.949219 23.042969 C 26.945312 22.644531 26.941406 22.242188 26.941406 21.839844 C 26.9375 21.683594 26.9375 21.535156 26.933594 21.378906 C 26.933594 21.167969 26.933594 20.949219 26.933594 20.738281 C 26.929688 20.671875 26.929688 20.609375 26.925781 20.546875 C 26.933594 20.210938 26.980469 19.996094 27.1875 19.734375 C 27.421875 19.511719 27.421875 19.511719 27.730469 19.449219 Z M 27.730469 19.449219 "/>
<path style=" stroke:none;fill-rule:nonzero;fill:rgb(60.784314%,60.784314%,60.784314%);fill-opacity:1;" d="M 33.925781 19.246094 C 34.371094 20.117188 34.660156 21.078125 34.96875 22.003906 C 34.996094 22.082031 35.023438 22.164062 35.050781 22.246094 C 35.285156 22.964844 35.308594 23.617188 35.15625 24.355469 C 35.136719 24.441406 35.125 24.519531 35.105469 24.605469 C 35.089844 24.695312 35.089844 24.695312 35.066406 24.785156 C 34.753906 24.722656 34.582031 24.597656 34.34375 24.378906 C 33.9375 24.066406 33.511719 23.945312 33.015625 23.84375 C 32.851562 23.8125 32.851562 23.8125 32.683594 23.78125 C 32.597656 23.761719 32.515625 23.746094 32.433594 23.730469 C 32.929688 22.238281 33.425781 20.742188 33.925781 19.246094 Z M 33.925781 19.246094 "/>
<path style=" stroke:none;fill-rule:nonzero;fill:rgb(85.490196%,75.294118%,60%);fill-opacity:1;" d="M 42.820312 31.257812 C 43.15625 31.445312 43.339844 31.636719 43.503906 31.992188 C 43.574219 32.542969 43.480469 32.945312 43.152344 33.398438 C 42.929688 33.582031 42.683594 33.699219 42.425781 33.820312 C 42.355469 33.855469 42.285156 33.890625 42.210938 33.925781 C 41.738281 34.15625 41.257812 34.386719 40.78125 34.613281 C 39.691406 35.132812 38.605469 35.667969 37.527344 36.207031 C 37.347656 36.292969 37.171875 36.382812 36.992188 36.472656 C 36.625 36.65625 36.253906 36.839844 35.886719 37.027344 C 35.417969 37.257812 34.953125 37.492188 34.488281 37.722656 C 34.121094 37.902344 33.753906 38.089844 33.390625 38.269531 C 33.214844 38.355469 33.046875 38.441406 32.875 38.527344 C 31.882812 39.019531 30.90625 39.527344 29.941406 40.074219 C 29.28125 40.441406 28.609375 40.734375 27.863281 40.871094 C 28.105469 40.605469 28.332031 40.4375 28.648438 40.28125 C 28.738281 40.238281 28.824219 40.191406 28.914062 40.148438 C 29.054688 40.078125 29.054688 40.078125 29.199219 40.007812 C 29.292969 39.960938 29.394531 39.910156 29.492188 39.863281 C 29.753906 39.730469 30.015625 39.605469 30.273438 39.472656 C 30.535156 39.347656 30.792969 39.214844 31.050781 39.089844 C 31.4375 38.898438 31.824219 38.707031 32.207031 38.515625 C 32.625 38.3125 33.039062 38.105469 33.453125 37.898438 C 34.035156 37.605469 34.613281 37.316406 35.199219 37.03125 C 35.808594 36.730469 36.421875 36.425781 37.03125 36.121094 C 37.441406 35.921875 37.851562 35.71875 38.261719 35.515625 C 38.660156 35.320312 39.0625 35.121094 39.460938 34.921875 C 39.613281 34.847656 39.765625 34.773438 39.914062 34.699219 C 40.128906 34.597656 40.335938 34.492188 40.546875 34.386719 C 40.609375 34.355469 40.671875 34.324219 40.734375 34.292969 C 41.253906 34.03125 41.53125 33.714844 41.816406 33.207031 C 42.003906 32.617188 42.027344 32.058594 41.746094 31.492188 C 41.660156 31.347656 41.660156 31.347656 41.574219 31.199219 C 42.019531 31.050781 42.394531 31.0625 42.820312 31.257812 Z M 42.820312 31.257812 "/>
<path style=" stroke:none;fill-rule:nonzero;fill:rgb(77.647059%,11.372549%,11.372549%);fill-opacity:1;" d="M 26.015625 18.808594 C 25.984375 18.863281 25.953125 18.917969 25.921875 18.980469 C 25.578125 19.652344 25.511719 20.214844 25.515625 20.964844 C 25.511719 21.074219 25.511719 21.183594 25.507812 21.300781 C 25.503906 21.585938 25.503906 21.875 25.503906 22.164062 C 25.503906 22.457031 25.5 22.753906 25.496094 23.050781 C 25.492188 23.628906 25.488281 24.207031 25.488281 24.785156 C 25.402344 24.785156 25.316406 24.785156 25.222656 24.785156 C 25.070312 24.46875 24.917969 24.152344 24.761719 23.835938 C 24.722656 23.746094 24.675781 23.65625 24.632812 23.566406 C 24.183594 22.628906 23.832031 21.863281 23.90625 20.808594 C 23.910156 20.722656 23.910156 20.644531 23.914062 20.558594 C 23.949219 19.914062 24.085938 19.484375 24.578125 19.039062 C 25.035156 18.726562 25.476562 18.800781 26.015625 18.808594 Z M 26.015625 18.808594 "/>
<path style=" stroke:none;fill-rule:nonzero;fill:rgb(0%,72.54902%,81.960784%);fill-opacity:1;" d="M 28.398438 12.09375 C 28.824219 12.308594 29.089844 12.65625 29.269531 13.097656 C 29.363281 13.539062 29.300781 13.875 29.082031 14.265625 C 28.855469 14.582031 28.664062 14.785156 28.300781 14.941406 C 27.824219 15.019531 27.371094 15.054688 26.933594 14.816406 C 26.539062 14.488281 26.3125 14.199219 26.257812 13.683594 C 26.230469 13.175781 26.28125 12.875 26.628906 12.480469 C 27.164062 12.011719 27.699219 11.890625 28.398438 12.09375 Z M 28.398438 12.09375 "/>
<path style=" stroke:none;fill-rule:nonzero;fill:rgb(98.039216%,74.509804%,2.745098%);fill-opacity:1;" d="M 27.949219 1.503906 C 28.371094 1.691406 28.636719 2.105469 28.917969 2.460938 C 28.957031 2.511719 28.996094 2.558594 29.035156 2.609375 C 29.609375 3.332031 30.121094 4.082031 30.613281 4.859375 C 30.664062 4.941406 30.714844 5.019531 30.769531 5.105469 C 30.816406 5.179688 30.863281 5.253906 30.910156 5.332031 C 30.949219 5.398438 30.992188 5.464844 31.035156 5.535156 C 31.113281 5.714844 31.113281 5.714844 31.027344 5.976562 C 30.804688 6.097656 30.804688 6.097656 30.535156 6.214844 C 30.449219 6.253906 30.355469 6.289062 30.265625 6.328125 C 30.199219 6.355469 30.128906 6.386719 30.058594 6.417969 C 29.785156 6.082031 29.597656 5.710938 29.394531 5.335938 C 28.917969 4.460938 28.402344 3.617188 27.78125 2.839844 C 27.742188 2.789062 27.699219 2.738281 27.660156 2.683594 C 27.582031 2.582031 27.5 2.488281 27.417969 2.390625 C 27.160156 2.070312 27.160156 2.070312 27.160156 1.824219 C 27.339844 1.496094 27.601562 1.4375 27.949219 1.503906 Z M 27.949219 1.503906 "/>
<path style=" stroke:none;fill-rule:nonzero;fill:rgb(0%,0%,0%);fill-opacity:1;" d="M 32.519531 26.191406 C 32.757812 26.347656 32.917969 26.464844 33.046875 26.71875 C 33.070312 27.113281 33.070312 27.511719 33.074219 27.910156 C 33.074219 28.105469 33.078125 28.304688 33.082031 28.5 C 33.082031 28.625 33.085938 28.753906 33.085938 28.878906 C 33.085938 28.996094 33.089844 29.109375 33.089844 29.226562 C 33.042969 29.578125 32.945312 29.722656 32.695312 29.972656 C 32.441406 30.097656 32.269531 30.085938 31.992188 30.058594 C 31.753906 29.902344 31.59375 29.785156 31.464844 29.53125 C 31.441406 29.136719 31.441406 28.738281 31.4375 28.339844 C 31.4375 28.144531 31.433594 27.945312 31.429688 27.75 C 31.429688 27.625 31.425781 27.496094 31.425781 27.371094 C 31.425781 27.253906 31.425781 27.140625 31.425781 27.023438 C 31.472656 26.671875 31.566406 26.527344 31.816406 26.277344 C 32.066406 26.152344 32.242188 26.164062 32.519531 26.191406 Z M 32.519531 26.191406 "/>
<path style=" stroke:none;fill-rule:nonzero;fill:rgb(0%,0%,0%);fill-opacity:1;" d="M 23.644531 26.277344 C 23.894531 26.480469 23.980469 26.589844 24.082031 26.894531 C 24.105469 27.300781 24.101562 27.703125 24.105469 28.105469 C 24.105469 28.222656 24.109375 28.332031 24.109375 28.449219 C 24.113281 28.554688 24.113281 28.664062 24.113281 28.777344 C 24.113281 28.875 24.113281 28.972656 24.113281 29.074219 C 24.070312 29.449219 23.960938 29.765625 23.667969 30.007812 C 23.367188 30.085938 23.148438 30.042969 22.851562 29.972656 C 22.660156 29.832031 22.660156 29.832031 22.5 29.621094 C 22.464844 29.382812 22.449219 29.179688 22.453125 28.941406 C 22.453125 28.878906 22.453125 28.8125 22.453125 28.746094 C 22.453125 28.609375 22.453125 28.472656 22.453125 28.335938 C 22.457031 28.125 22.453125 27.917969 22.453125 27.707031 C 22.453125 27.574219 22.453125 27.441406 22.453125 27.308594 C 22.453125 27.242188 22.453125 27.183594 22.449219 27.117188 C 22.457031 26.816406 22.480469 26.65625 22.667969 26.417969 C 23.019531 26.152344 23.210938 26.183594 23.644531 26.277344 Z M 23.644531 26.277344 "/>
<path style=" stroke:none;fill-rule:nonzero;fill:rgb(80.784314%,70.980392%,56.470588%);fill-opacity:1;" d="M 17.488281 32.957031 C 18.121094 32.949219 18.753906 32.941406 19.390625 32.933594 C 19.683594 32.933594 19.980469 32.929688 20.273438 32.925781 C 20.613281 32.921875 20.953125 32.917969 21.292969 32.914062 C 21.394531 32.914062 21.5 32.910156 21.605469 32.910156 C 22.683594 32.910156 23.558594 33.222656 24.335938 33.980469 C 24.660156 34.347656 24.960938 34.738281 24.960938 35.246094 C 23.25 35.246094 21.539062 35.246094 19.777344 35.246094 C 19.777344 35.214844 19.777344 35.183594 19.777344 35.15625 C 20.996094 35.15625 22.214844 35.15625 23.464844 35.15625 C 23.128906 34.335938 22.847656 33.746094 22.238281 33.136719 C 22.027344 33.105469 22.027344 33.105469 21.777344 33.105469 C 21.683594 33.105469 21.589844 33.101562 21.492188 33.101562 C 21.390625 33.097656 21.285156 33.097656 21.183594 33.097656 C 21.074219 33.097656 20.972656 33.09375 20.863281 33.09375 C 20.527344 33.089844 20.1875 33.085938 19.851562 33.078125 C 19.621094 33.074219 19.398438 33.074219 19.167969 33.070312 C 18.609375 33.0625 18.050781 33.050781 17.488281 33.046875 C 17.488281 33.019531 17.488281 32.988281 17.488281 32.957031 Z M 17.488281 32.957031 "/>
<path style=" stroke:none;fill-rule:nonzero;fill:rgb(0%,0%,0%);fill-opacity:1;" d="M 28.125 29.269531 C 28.324219 29.433594 28.449219 29.5625 28.566406 29.792969 C 28.574219 29.980469 28.585938 30.164062 28.589844 30.347656 C 28.589844 30.449219 28.589844 30.546875 28.59375 30.652344 C 28.5625 30.964844 28.492188 31.125 28.300781 31.378906 C 27.992188 31.582031 27.871094 31.582031 27.511719 31.550781 C 27.214844 31.449219 27.164062 31.382812 26.980469 31.113281 C 26.960938 30.863281 26.949219 30.625 26.949219 30.371094 C 26.949219 30.304688 26.945312 30.238281 26.945312 30.167969 C 26.941406 29.839844 26.941406 29.671875 27.144531 29.402344 C 27.488281 29.15625 27.722656 29.160156 28.125 29.269531 Z M 28.125 29.269531 "/>
<path style=" stroke:none;fill-rule:nonzero;fill:rgb(83.137255%,72.941176%,58.039216%);fill-opacity:1;" d="M 37.878906 35.683594 C 37.96875 35.726562 37.96875 35.726562 38.058594 35.769531 C 38.058594 35.832031 38.058594 35.886719 38.058594 35.949219 C 37.972656 35.988281 37.894531 36.027344 37.808594 36.070312 C 37.03125 36.457031 36.253906 36.847656 35.476562 37.234375 C 35.074219 37.433594 34.675781 37.632812 34.277344 37.832031 C 33.816406 38.058594 33.351562 38.292969 32.886719 38.523438 C 32.816406 38.558594 32.738281 38.597656 32.664062 38.636719 C 31.714844 39.109375 30.777344 39.585938 29.859375 40.113281 C 29.230469 40.472656 28.574219 40.738281 27.863281 40.871094 C 28.105469 40.605469 28.332031 40.4375 28.648438 40.28125 C 28.738281 40.238281 28.824219 40.191406 28.914062 40.148438 C 29.007812 40.101562 29.101562 40.054688 29.199219 40.007812 C 29.292969 39.960938 29.394531 39.910156 29.492188 39.863281 C 29.753906 39.730469 30.015625 39.605469 30.273438 39.472656 C 30.535156 39.347656 30.792969 39.214844 31.050781 39.089844 C 31.453125 38.890625 31.851562 38.691406 32.253906 38.496094 C 33.132812 38.058594 34.007812 37.621094 34.878906 37.175781 C 35.207031 37.011719 35.535156 36.847656 35.863281 36.683594 C 36.03125 36.597656 36.199219 36.511719 36.371094 36.425781 C 36.613281 36.300781 36.859375 36.179688 37.105469 36.050781 C 37.179688 36.015625 37.257812 35.976562 37.332031 35.933594 C 37.402344 35.902344 37.472656 35.867188 37.542969 35.832031 C 37.605469 35.800781 37.667969 35.769531 37.730469 35.738281 C 37.804688 35.710938 37.804688 35.710938 37.878906 35.683594 Z M 37.878906 35.683594 "/>
<path style=" stroke:none;fill-rule:nonzero;fill:rgb(0%,0%,0%);fill-opacity:1;" d="M 28.300781 32.34375 C 28.542969 32.605469 28.566406 32.738281 28.558594 33.097656 C 28.464844 33.4375 28.425781 33.5625 28.125 33.75 C 27.847656 33.800781 27.609375 33.804688 27.332031 33.75 C 27.09375 33.5625 27.003906 33.4375 26.949219 33.136719 C 26.929688 32.832031 26.957031 32.644531 27.136719 32.394531 C 27.558594 32.105469 27.824219 32.152344 28.300781 32.34375 Z M 28.300781 32.34375 "/>
<path style=" stroke:none;fill-rule:nonzero;fill:rgb(84.313725%,74.117647%,58.823529%);fill-opacity:1;" d="M 10.898438 30.144531 C 11.902344 30.324219 12.714844 30.792969 13.535156 31.378906 C 13.6875 31.480469 13.84375 31.578125 13.996094 31.679688 C 14.109375 31.753906 14.21875 31.824219 14.324219 31.902344 C 14.324219 31.933594 14.324219 31.964844 14.324219 31.992188 C 13.335938 31.925781 12.492188 31.390625 11.691406 30.847656 C 11.609375 30.800781 11.535156 30.75 11.453125 30.699219 C 11.382812 30.652344 11.308594 30.605469 11.230469 30.558594 C 11.167969 30.519531 11.105469 30.472656 11.035156 30.433594 C 10.992188 30.394531 10.945312 30.359375 10.898438 30.324219 C 10.898438 30.261719 10.898438 30.207031 10.898438 30.144531 Z M 10.898438 30.144531 "/>
</g>
</svg>
