<?xml version="1.0" encoding="UTF-8"?>
<svg xmlns="http://www.w3.org/2000/svg" xmlns:xlink="http://www.w3.org/1999/xlink" width="45px" height="45px" viewBox="0 0 45 45" version="1.1">
<g id="surface1">
<path style=" stroke:none;fill-rule:nonzero;fill:rgb(94.117647%,90.588235%,85.882353%);fill-opacity:1;" d="M 41.753906 1.71875 C 42.472656 2.113281 43.082031 2.710938 43.363281 3.484375 C 43.46875 3.871094 43.457031 4.253906 43.457031 4.65625 C 43.460938 4.796875 43.460938 4.796875 43.460938 4.941406 C 43.46875 5.257812 43.46875 5.574219 43.472656 5.894531 C 43.472656 6.121094 43.472656 6.347656 43.476562 6.578125 C 43.484375 7.261719 43.488281 7.949219 43.492188 8.628906 C 43.496094 8.828125 43.496094 9.019531 43.496094 9.214844 C 43.503906 10.425781 43.507812 11.632812 43.511719 12.84375 C 43.515625 13.121094 43.515625 13.402344 43.515625 13.683594 C 43.515625 13.753906 43.515625 13.820312 43.515625 13.894531 C 43.519531 15.011719 43.527344 16.132812 43.542969 17.253906 C 43.550781 18.410156 43.558594 19.566406 43.5625 20.722656 C 43.5625 21.371094 43.566406 22.011719 43.574219 22.660156 C 43.644531 27.742188 43.644531 27.742188 42.183594 30.042969 C 41.960938 30.402344 41.789062 30.773438 41.617188 31.152344 C 41.414062 31.496094 41.179688 31.691406 40.800781 31.796875 C 40.734375 31.800781 40.667969 31.808594 40.605469 31.816406 C 40.605469 32.046875 40.605469 32.277344 40.605469 32.519531 C 40.675781 32.53125 40.742188 32.539062 40.816406 32.554688 C 41.042969 32.605469 41.042969 32.605469 41.222656 32.785156 C 41.246094 32.964844 41.246094 32.964844 41.246094 33.191406 C 41.25 33.277344 41.25 33.363281 41.253906 33.449219 C 41.253906 33.589844 41.253906 33.589844 41.253906 33.730469 C 41.253906 33.824219 41.253906 33.921875 41.253906 34.019531 C 41.253906 34.222656 41.253906 34.425781 41.257812 34.625 C 41.257812 34.933594 41.265625 35.242188 41.269531 35.546875 C 41.269531 35.742188 41.269531 35.941406 41.269531 36.136719 C 41.273438 36.230469 41.273438 36.320312 41.273438 36.414062 C 41.269531 37.125 41.097656 37.707031 40.609375 38.246094 C 40.027344 38.808594 39.398438 38.976562 38.613281 38.96875 C 38.539062 38.96875 38.464844 38.96875 38.390625 38.96875 C 38.144531 38.96875 37.902344 38.96875 37.660156 38.964844 C 37.480469 38.964844 37.304688 38.964844 37.128906 38.964844 C 36.652344 38.964844 36.175781 38.964844 35.699219 38.960938 C 35.203125 38.960938 34.707031 38.957031 34.207031 38.957031 C 33.261719 38.957031 32.320312 38.957031 31.378906 38.953125 C 30.304688 38.953125 29.230469 38.949219 28.15625 38.949219 C 25.949219 38.949219 23.742188 38.941406 21.535156 38.933594 C 21.511719 38.988281 21.484375 39.042969 21.460938 39.097656 C 21.316406 39.367188 21.105469 39.566406 20.890625 39.777344 C 20.84375 39.824219 20.796875 39.867188 20.753906 39.917969 C 20.652344 40.011719 20.558594 40.109375 20.460938 40.203125 C 20.316406 40.355469 20.167969 40.5 20.019531 40.648438 C 19.925781 40.742188 19.832031 40.835938 19.738281 40.929688 C 19.691406 40.972656 19.648438 41.019531 19.605469 41.0625 C 19.1875 41.476562 18.921875 41.597656 18.335938 41.605469 C 17.714844 41.59375 17.460938 41.433594 17.003906 41.019531 C 16.574219 40.605469 16.574219 40.605469 16.039062 40.398438 C 15.828125 40.421875 15.828125 40.421875 15.558594 40.519531 C 15.558594 40.621094 15.5625 40.730469 15.566406 40.832031 C 15.558594 42.480469 15.558594 42.480469 14.925781 43.117188 C 14.644531 43.339844 14.410156 43.4375 14.042969 43.445312 C 13.972656 43.445312 13.898438 43.449219 13.824219 43.449219 C 13.746094 43.449219 13.667969 43.449219 13.589844 43.449219 C 13.511719 43.449219 13.429688 43.449219 13.347656 43.449219 C 13.175781 43.449219 13.007812 43.449219 12.839844 43.449219 C 12.582031 43.449219 12.324219 43.453125 12.066406 43.457031 C 11.902344 43.457031 11.734375 43.457031 11.570312 43.457031 C 11.492188 43.457031 11.414062 43.460938 11.339844 43.460938 C 10.722656 43.457031 10.417969 43.261719 9.953125 42.855469 C 9.484375 42.261719 9.558594 41.242188 9.582031 40.519531 C 9.140625 40.402344 9.140625 40.402344 8.71875 40.511719 C 8.5625 40.632812 8.421875 40.761719 8.28125 40.894531 C 7.785156 41.359375 7.515625 41.597656 6.824219 41.605469 C 6.726562 41.605469 6.628906 41.609375 6.53125 41.613281 C 5.972656 41.535156 5.589844 41.128906 5.207031 40.738281 C 5.160156 40.691406 5.113281 40.644531 5.066406 40.597656 C 4.972656 40.503906 4.878906 40.410156 4.78125 40.3125 C 4.636719 40.167969 4.488281 40.019531 4.339844 39.875 C 4.25 39.78125 4.15625 39.6875 4.0625 39.59375 C 4.019531 39.550781 3.976562 39.511719 3.933594 39.464844 C 3.519531 39.046875 3.402344 38.785156 3.394531 38.199219 C 3.40625 37.574219 3.566406 37.324219 3.980469 36.867188 C 4.394531 36.441406 4.394531 36.441406 4.601562 35.902344 C 4.578125 35.691406 4.578125 35.691406 4.480469 35.417969 C 4.324219 35.425781 4.324219 35.425781 4.167969 35.433594 C 2.519531 35.417969 2.519531 35.417969 1.882812 34.789062 C 1.660156 34.503906 1.5625 34.269531 1.554688 33.910156 C 1.554688 33.835938 1.550781 33.761719 1.550781 33.6875 C 1.550781 33.609375 1.550781 33.535156 1.550781 33.453125 C 1.550781 33.375 1.550781 33.292969 1.550781 33.210938 C 1.550781 33.042969 1.550781 32.871094 1.550781 32.699219 C 1.550781 32.441406 1.546875 32.183594 1.542969 31.925781 C 1.542969 31.761719 1.542969 31.597656 1.542969 31.433594 C 1.542969 31.355469 1.539062 31.277344 1.539062 31.199219 C 1.542969 30.585938 1.738281 30.28125 2.144531 29.816406 C 2.738281 29.347656 3.757812 29.417969 4.480469 29.441406 C 4.597656 29.003906 4.597656 29.003906 4.488281 28.582031 C 4.367188 28.425781 4.238281 28.285156 4.105469 28.144531 C 3.640625 27.652344 3.402344 27.378906 3.394531 26.683594 C 3.394531 26.539062 3.394531 26.539062 3.386719 26.394531 C 3.464844 25.832031 3.871094 25.453125 4.261719 25.070312 C 4.308594 25.023438 4.355469 24.980469 4.402344 24.933594 C 4.496094 24.835938 4.589844 24.742188 4.6875 24.644531 C 4.832031 24.5 4.980469 24.351562 5.125 24.207031 C 5.21875 24.113281 5.3125 24.019531 5.40625 23.925781 C 5.449219 23.882812 5.488281 23.839844 5.535156 23.792969 C 5.835938 23.5 6.054688 23.300781 6.484375 23.277344 C 6.546875 23.285156 6.613281 23.289062 6.679688 23.292969 C 6.679688 23.089844 6.679688 22.886719 6.679688 22.675781 C 6.609375 22.667969 6.542969 22.660156 6.472656 22.648438 C 6.238281 22.589844 6.238281 22.589844 6.066406 22.324219 C 6.042969 22.101562 6.042969 22.101562 6.039062 21.832031 C 6.039062 21.675781 6.039062 21.675781 6.035156 21.519531 C 6.035156 21.40625 6.035156 21.292969 6.035156 21.175781 C 6.03125 21.054688 6.03125 20.933594 6.03125 20.816406 C 6.027344 20.488281 6.027344 20.160156 6.027344 19.835938 C 6.027344 19.632812 6.027344 19.425781 6.023438 19.222656 C 6.019531 18.582031 6.019531 17.949219 6.019531 17.304688 C 6.015625 16.570312 6.011719 15.832031 6.003906 15.097656 C 6.003906 14.527344 6 13.957031 6 13.386719 C 6 13.042969 5.996094 12.707031 5.996094 12.363281 C 5.992188 12.042969 5.992188 11.722656 5.992188 11.40625 C 5.992188 11.230469 5.988281 11.058594 5.984375 10.882812 C 5.992188 10.378906 6.003906 10.023438 6.339844 9.632812 C 6.449219 9.523438 6.5625 9.417969 6.679688 9.316406 C 6.777344 9.214844 6.875 9.113281 6.972656 9.011719 C 7.074219 8.910156 7.175781 8.808594 7.277344 8.703125 C 7.335938 8.648438 7.390625 8.59375 7.449219 8.535156 C 7.636719 8.347656 7.820312 8.164062 8 7.980469 C 8.132812 7.855469 8.261719 7.722656 8.386719 7.59375 C 8.65625 7.328125 8.925781 7.058594 9.191406 6.789062 C 9.539062 6.445312 9.886719 6.097656 10.230469 5.753906 C 10.496094 5.488281 10.757812 5.222656 11.023438 4.960938 C 11.152344 4.832031 11.277344 4.707031 11.410156 4.574219 C 11.582031 4.402344 11.761719 4.222656 11.9375 4.046875 C 11.988281 3.992188 12.042969 3.941406 12.097656 3.886719 C 12.441406 3.542969 12.589844 3.417969 13.074219 3.417969 C 13.160156 3.417969 13.246094 3.417969 13.339844 3.417969 C 13.433594 3.417969 13.535156 3.417969 13.636719 3.417969 C 13.789062 3.417969 13.789062 3.417969 13.949219 3.417969 C 14.234375 3.417969 14.523438 3.417969 14.808594 3.417969 C 15.117188 3.417969 15.425781 3.417969 15.738281 3.417969 C 16.273438 3.417969 16.808594 3.417969 17.347656 3.417969 C 18.121094 3.417969 18.894531 3.417969 19.671875 3.417969 C 20.929688 3.417969 22.191406 3.421875 23.445312 3.421875 C 24.667969 3.421875 25.894531 3.421875 27.113281 3.425781 C 27.191406 3.425781 27.261719 3.425781 27.34375 3.425781 C 27.722656 3.425781 28.097656 3.425781 28.476562 3.425781 C 31.609375 3.425781 34.746094 3.425781 37.878906 3.425781 C 37.90625 3.34375 37.933594 3.261719 37.960938 3.175781 C 38.222656 2.425781 38.886719 2 39.570312 1.660156 C 40.203125 1.457031 41.132812 1.464844 41.753906 1.71875 Z M 41.753906 1.71875 "/>
<path style=" stroke:none;fill-rule:nonzero;fill:rgb(27.45098%,74.117647%,90.196078%);fill-opacity:1;" d="M 11.601562 21.402344 C 11.675781 21.402344 11.75 21.402344 11.828125 21.402344 C 11.980469 21.402344 12.136719 21.402344 12.292969 21.402344 C 12.53125 21.40625 12.765625 21.40625 13.003906 21.402344 C 13.152344 21.40625 13.308594 21.40625 13.457031 21.40625 C 13.527344 21.40625 13.597656 21.40625 13.671875 21.40625 C 14.171875 21.414062 14.53125 21.515625 14.925781 21.839844 C 15.558594 22.554688 15.507812 23.433594 15.558594 24.347656 C 15.984375 24.519531 15.984375 24.519531 16.417969 24.449219 C 16.566406 24.328125 16.707031 24.203125 16.839844 24.066406 C 17.699219 23.253906 17.699219 23.253906 18.324219 23.253906 C 18.386719 23.253906 18.449219 23.253906 18.515625 23.253906 C 19.058594 23.347656 19.417969 23.6875 19.792969 24.066406 C 19.84375 24.113281 19.894531 24.164062 19.941406 24.214844 C 20.046875 24.320312 20.152344 24.421875 20.253906 24.527344 C 20.410156 24.683594 20.574219 24.84375 20.730469 25.003906 C 20.832031 25.101562 20.933594 25.203125 21.035156 25.308594 C 21.082031 25.355469 21.128906 25.402344 21.179688 25.449219 C 21.546875 25.824219 21.691406 26.09375 21.746094 26.613281 C 21.714844 27.351562 21.246094 27.847656 20.765625 28.363281 C 20.523438 28.632812 20.523438 28.632812 20.488281 28.980469 C 20.5625 29.179688 20.5625 29.179688 20.652344 29.355469 C 20.84375 29.410156 20.84375 29.410156 21.074219 29.441406 C 21.164062 29.457031 21.253906 29.472656 21.339844 29.488281 C 21.527344 29.515625 21.714844 29.542969 21.902344 29.570312 C 22.816406 29.699219 22.816406 29.699219 23.203125 30.058594 C 23.535156 30.542969 23.605469 30.886719 23.597656 31.464844 C 23.597656 31.539062 23.597656 31.613281 23.597656 31.691406 C 23.597656 31.847656 23.597656 32 23.597656 32.15625 C 23.59375 32.394531 23.59375 32.628906 23.597656 32.867188 C 23.59375 33.019531 23.59375 33.167969 23.59375 33.324219 C 23.59375 33.394531 23.59375 33.464844 23.59375 33.535156 C 23.585938 34.035156 23.488281 34.402344 23.152344 34.789062 C 23.101562 34.832031 23.050781 34.871094 23 34.914062 C 22.949219 34.957031 22.902344 34.996094 22.851562 35.042969 C 22.386719 35.339844 21.902344 35.367188 21.371094 35.386719 C 21.300781 35.390625 21.230469 35.394531 21.160156 35.394531 C 20.992188 35.40625 20.824219 35.414062 20.652344 35.417969 C 20.515625 35.714844 20.515625 35.714844 20.484375 36.027344 C 20.605469 36.304688 20.808594 36.515625 21.003906 36.738281 C 21.460938 37.246094 21.460938 37.246094 21.535156 37.617188 C 23.816406 37.613281 26.101562 37.609375 28.382812 37.597656 C 29.441406 37.597656 30.5 37.59375 31.5625 37.59375 C 32.484375 37.59375 33.410156 37.589844 34.332031 37.585938 C 34.824219 37.582031 35.3125 37.582031 35.800781 37.582031 C 36.261719 37.582031 36.722656 37.582031 37.179688 37.578125 C 37.351562 37.578125 37.519531 37.578125 37.6875 37.578125 C 37.917969 37.578125 38.152344 37.574219 38.382812 37.574219 C 38.445312 37.574219 38.511719 37.574219 38.582031 37.574219 C 39.035156 37.570312 39.289062 37.460938 39.636719 37.175781 C 39.886719 36.789062 39.839844 36.332031 39.835938 35.882812 C 39.835938 35.714844 39.839844 35.546875 39.839844 35.378906 C 39.839844 35.113281 39.839844 34.847656 39.839844 34.582031 C 39.839844 34.328125 39.84375 34.070312 39.847656 33.816406 C 39.847656 33.730469 39.84375 33.65625 39.84375 33.574219 C 39.847656 33.183594 39.863281 33.011719 40.105469 32.691406 C 40.410156 32.46875 40.589844 32.464844 40.957031 32.519531 C 41.152344 32.660156 41.210938 32.738281 41.253906 32.976562 C 41.253906 33.050781 41.253906 33.125 41.253906 33.203125 C 41.257812 33.285156 41.257812 33.371094 41.261719 33.460938 C 41.261719 33.597656 41.261719 33.597656 41.261719 33.738281 C 41.261719 33.835938 41.261719 33.929688 41.265625 34.027344 C 41.265625 34.226562 41.265625 34.433594 41.265625 34.632812 C 41.265625 34.941406 41.269531 35.246094 41.273438 35.550781 C 41.273438 35.746094 41.273438 35.945312 41.273438 36.140625 C 41.273438 36.230469 41.277344 36.324219 41.277344 36.417969 C 41.269531 37.128906 41.097656 37.710938 40.609375 38.246094 C 40.027344 38.808594 39.398438 38.976562 38.613281 38.96875 C 38.539062 38.96875 38.464844 38.96875 38.390625 38.96875 C 38.144531 38.96875 37.902344 38.96875 37.660156 38.964844 C 37.480469 38.964844 37.304688 38.964844 37.128906 38.964844 C 36.652344 38.964844 36.175781 38.964844 35.699219 38.960938 C 35.203125 38.960938 34.707031 38.957031 34.207031 38.957031 C 33.261719 38.957031 32.320312 38.957031 31.378906 38.953125 C 30.304688 38.953125 29.230469 38.949219 28.15625 38.949219 C 25.949219 38.949219 23.742188 38.941406 21.535156 38.933594 C 21.511719 38.988281 21.484375 39.042969 21.460938 39.097656 C 21.316406 39.367188 21.105469 39.566406 20.890625 39.777344 C 20.84375 39.824219 20.796875 39.867188 20.753906 39.917969 C 20.652344 40.011719 20.558594 40.109375 20.460938 40.203125 C 20.316406 40.355469 20.167969 40.5 20.019531 40.648438 C 19.925781 40.742188 19.832031 40.835938 19.738281 40.929688 C 19.691406 40.972656 19.648438 41.019531 19.605469 41.0625 C 19.1875 41.476562 18.921875 41.597656 18.332031 41.605469 C 17.714844 41.59375 17.460938 41.433594 17.003906 41.019531 C 16.574219 40.605469 16.574219 40.605469 16.039062 40.398438 C 15.828125 40.421875 15.828125 40.421875 15.558594 40.519531 C 15.558594 40.621094 15.5625 40.730469 15.566406 40.832031 C 15.558594 42.480469 15.558594 42.480469 14.925781 43.117188 C 14.644531 43.339844 14.410156 43.4375 14.042969 43.445312 C 13.972656 43.445312 13.898438 43.449219 13.824219 43.449219 C 13.746094 43.449219 13.667969 43.449219 13.589844 43.449219 C 13.472656 43.449219 13.472656 43.449219 13.347656 43.449219 C 13.175781 43.449219 13.007812 43.449219 12.839844 43.449219 C 12.582031 43.449219 12.324219 43.453125 12.066406 43.457031 C 11.902344 43.457031 11.734375 43.457031 11.570312 43.457031 C 11.492188 43.457031 11.414062 43.460938 11.339844 43.460938 C 10.722656 43.457031 10.417969 43.261719 9.953125 42.855469 C 9.484375 42.261719 9.558594 41.242188 9.582031 40.519531 C 9.140625 40.402344 9.140625 40.402344 8.71875 40.511719 C 8.5625 40.632812 8.421875 40.761719 8.28125 40.894531 C 7.785156 41.359375 7.515625 41.597656 6.820312 41.605469 C 6.726562 41.605469 6.628906 41.609375 6.53125 41.613281 C 5.972656 41.535156 5.589844 41.128906 5.207031 40.738281 C 5.160156 40.691406 5.113281 40.644531 5.066406 40.597656 C 4.972656 40.503906 4.878906 40.410156 4.78125 40.3125 C 4.636719 40.167969 4.488281 40.019531 4.339844 39.875 C 4.25 39.78125 4.15625 39.6875 4.0625 39.59375 C 4.019531 39.550781 3.976562 39.511719 3.933594 39.464844 C 3.519531 39.046875 3.402344 38.785156 3.394531 38.199219 C 3.40625 37.574219 3.566406 37.324219 3.980469 36.867188 C 4.394531 36.441406 4.394531 36.441406 4.601562 35.902344 C 4.578125 35.691406 4.578125 35.691406 4.480469 35.417969 C 4.378906 35.421875 4.269531 35.425781 4.167969 35.433594 C 2.519531 35.417969 2.519531 35.417969 1.882812 34.789062 C 1.660156 34.503906 1.5625 34.269531 1.554688 33.910156 C 1.554688 33.800781 1.554688 33.800781 1.550781 33.6875 C 1.550781 33.609375 1.550781 33.535156 1.550781 33.453125 C 1.550781 33.375 1.550781 33.292969 1.550781 33.210938 C 1.550781 33.042969 1.550781 32.871094 1.550781 32.699219 C 1.550781 32.441406 1.546875 32.183594 1.542969 31.925781 C 1.542969 31.761719 1.542969 31.597656 1.542969 31.433594 C 1.542969 31.355469 1.539062 31.277344 1.539062 31.199219 C 1.542969 30.585938 1.738281 30.28125 2.144531 29.816406 C 2.738281 29.347656 3.757812 29.417969 4.480469 29.441406 C 4.597656 29.003906 4.597656 29.003906 4.488281 28.582031 C 4.367188 28.425781 4.238281 28.285156 4.105469 28.144531 C 3.640625 27.652344 3.402344 27.378906 3.394531 26.683594 C 3.394531 26.589844 3.390625 26.488281 3.386719 26.394531 C 3.464844 25.832031 3.871094 25.453125 4.261719 25.070312 C 4.308594 25.023438 4.355469 24.980469 4.402344 24.933594 C 4.496094 24.835938 4.589844 24.742188 4.6875 24.644531 C 4.832031 24.5 4.980469 24.351562 5.125 24.207031 C 5.21875 24.113281 5.3125 24.019531 5.40625 23.925781 C 5.46875 23.863281 5.46875 23.863281 5.535156 23.792969 C 5.890625 23.441406 6.152344 23.269531 6.660156 23.253906 C 7.457031 23.28125 7.941406 23.710938 8.507812 24.234375 C 8.648438 24.367188 8.648438 24.367188 8.878906 24.519531 C 9.070312 24.519531 9.070312 24.519531 9.230469 24.433594 C 9.316406 24.402344 9.402344 24.375 9.492188 24.347656 C 9.582031 24.070312 9.605469 23.816406 9.628906 23.53125 C 9.742188 22.199219 9.742188 22.199219 10.195312 21.796875 C 10.683594 21.46875 11.019531 21.394531 11.601562 21.402344 Z M 11.601562 21.402344 "/>
<path style=" stroke:none;fill-rule:nonzero;fill:rgb(32.156863%,33.72549%,31.764706%);fill-opacity:1;" d="M 41.753906 1.71875 C 42.472656 2.113281 43.082031 2.710938 43.363281 3.484375 C 43.46875 3.871094 43.457031 4.253906 43.457031 4.65625 C 43.460938 4.796875 43.460938 4.796875 43.460938 4.941406 C 43.46875 5.257812 43.46875 5.574219 43.472656 5.894531 C 43.472656 6.121094 43.472656 6.347656 43.476562 6.578125 C 43.484375 7.261719 43.488281 7.949219 43.492188 8.628906 C 43.496094 8.828125 43.496094 9.019531 43.496094 9.214844 C 43.503906 10.425781 43.507812 11.632812 43.511719 12.84375 C 43.515625 13.121094 43.515625 13.402344 43.515625 13.683594 C 43.515625 13.753906 43.515625 13.820312 43.515625 13.894531 C 43.519531 15.011719 43.527344 16.132812 43.542969 17.253906 C 43.550781 18.410156 43.558594 19.566406 43.5625 20.722656 C 43.5625 21.371094 43.566406 22.011719 43.574219 22.660156 C 43.644531 27.742188 43.644531 27.742188 42.183594 30.042969 C 41.960938 30.402344 41.789062 30.773438 41.617188 31.152344 C 41.425781 31.476562 41.183594 31.675781 40.832031 31.804688 C 40.511719 31.820312 40.289062 31.761719 39.988281 31.640625 C 39.515625 31.175781 39.277344 30.585938 38.996094 29.992188 C 38.949219 29.894531 38.902344 29.796875 38.855469 29.699219 C 38.761719 29.496094 38.667969 29.292969 38.574219 29.089844 C 38.464844 28.859375 38.351562 28.636719 38.230469 28.410156 C 37.621094 27.261719 37.609375 26.207031 37.625 24.929688 C 37.625 24.707031 37.625 24.484375 37.625 24.257812 C 37.625 23.722656 37.628906 23.1875 37.632812 22.65625 C 37.636719 22.035156 37.636719 21.414062 37.636719 20.792969 C 37.644531 19.164062 37.652344 17.527344 37.660156 15.894531 C 37.683594 10.421875 37.683594 10.421875 37.707031 4.832031 C 29.726562 4.832031 21.753906 4.832031 13.535156 4.832031 C 13.535156 6.226562 13.535156 7.617188 13.535156 9.050781 C 13.160156 9.992188 12.898438 10.433594 12.011719 10.824219 C 11.589844 10.960938 11.175781 10.941406 10.738281 10.933594 C 10.644531 10.933594 10.546875 10.933594 10.449219 10.929688 C 10.144531 10.929688 9.835938 10.925781 9.53125 10.917969 C 9.324219 10.917969 9.113281 10.917969 8.90625 10.917969 C 8.398438 10.914062 7.894531 10.902344 7.382812 10.898438 C 7.382812 10.988281 7.382812 10.988281 7.382812 11.074219 C 7.394531 12.5 7.402344 13.925781 7.40625 15.347656 C 7.40625 16.035156 7.410156 16.730469 7.417969 17.417969 C 7.421875 18.019531 7.425781 18.613281 7.425781 19.214844 C 7.425781 19.535156 7.425781 19.851562 7.429688 20.171875 C 7.433594 20.527344 7.433594 20.878906 7.433594 21.234375 C 7.433594 21.394531 7.433594 21.394531 7.433594 21.554688 C 7.433594 22.265625 7.433594 22.265625 7.175781 22.566406 C 6.890625 22.699219 6.726562 22.730469 6.417969 22.675781 C 6.183594 22.492188 6.074219 22.386719 6.019531 22.089844 C 6.019531 22.003906 6.019531 21.910156 6.019531 21.820312 C 6.019531 21.71875 6.015625 21.613281 6.011719 21.507812 C 6.015625 21.394531 6.015625 21.28125 6.015625 21.164062 C 6.011719 21.042969 6.011719 20.925781 6.011719 20.808594 C 6.007812 20.480469 6.007812 20.152344 6.007812 19.828125 C 6.007812 19.554688 6.007812 19.285156 6.003906 19.007812 C 6.003906 18.367188 6.003906 17.722656 6.003906 17.082031 C 6.003906 16.417969 6.003906 15.753906 5.996094 15.089844 C 5.996094 14.519531 5.992188 13.949219 5.996094 13.378906 C 5.996094 13.042969 5.992188 12.703125 5.988281 12.359375 C 5.984375 12.042969 5.984375 11.722656 5.988281 11.402344 C 5.988281 11.230469 5.984375 11.058594 5.980469 10.882812 C 5.992188 10.378906 6.003906 10.023438 6.339844 9.632812 C 6.449219 9.523438 6.566406 9.417969 6.679688 9.316406 C 6.777344 9.214844 6.875 9.113281 6.972656 9.011719 C 7.074219 8.910156 7.175781 8.808594 7.277344 8.703125 C 7.335938 8.648438 7.390625 8.59375 7.449219 8.535156 C 7.636719 8.347656 7.820312 8.164062 8 7.980469 C 8.132812 7.855469 8.261719 7.722656 8.386719 7.59375 C 8.65625 7.328125 8.925781 7.058594 9.191406 6.789062 C 9.539062 6.445312 9.886719 6.097656 10.230469 5.753906 C 10.496094 5.488281 10.757812 5.222656 11.023438 4.960938 C 11.152344 4.832031 11.277344 4.707031 11.410156 4.574219 C 11.582031 4.402344 11.761719 4.222656 11.9375 4.046875 C 11.988281 3.992188 12.042969 3.941406 12.097656 3.886719 C 12.441406 3.542969 12.589844 3.417969 13.074219 3.417969 C 13.160156 3.417969 13.246094 3.417969 13.339844 3.417969 C 13.433594 3.417969 13.535156 3.417969 13.636719 3.417969 C 13.789062 3.417969 13.789062 3.417969 13.949219 3.417969 C 14.234375 3.417969 14.523438 3.417969 14.808594 3.417969 C 15.117188 3.417969 15.425781 3.417969 15.738281 3.417969 C 16.273438 3.417969 16.808594 3.417969 17.347656 3.417969 C 18.121094 3.417969 18.894531 3.417969 19.671875 3.417969 C 20.929688 3.417969 22.191406 3.421875 23.445312 3.421875 C 24.667969 3.421875 25.894531 3.421875 27.113281 3.425781 C 27.191406 3.425781 27.261719 3.425781 27.34375 3.425781 C 27.722656 3.425781 28.097656 3.425781 28.476562 3.425781 C 31.609375 3.425781 34.746094 3.425781 37.878906 3.425781 C 37.90625 3.34375 37.933594 3.261719 37.960938 3.175781 C 38.222656 2.425781 38.886719 2 39.570312 1.660156 C 40.203125 1.457031 41.132812 1.464844 41.753906 1.71875 Z M 41.753906 1.71875 "/>
<path style=" stroke:none;fill-rule:nonzero;fill:rgb(32.156863%,33.72549%,31.764706%);fill-opacity:1;" d="M 11.601562 21.402344 C 11.675781 21.402344 11.75 21.402344 11.828125 21.402344 C 11.980469 21.402344 12.136719 21.402344 12.292969 21.402344 C 12.53125 21.40625 12.765625 21.40625 13.003906 21.402344 C 13.152344 21.40625 13.308594 21.40625 13.457031 21.40625 C 13.527344 21.40625 13.597656 21.40625 13.671875 21.40625 C 14.171875 21.414062 14.53125 21.515625 14.925781 21.839844 C 15.558594 22.554688 15.507812 23.433594 15.558594 24.347656 C 15.984375 24.519531 15.984375 24.519531 16.417969 24.449219 C 16.566406 24.328125 16.707031 24.203125 16.839844 24.066406 C 17.699219 23.253906 17.699219 23.253906 18.324219 23.253906 C 18.386719 23.253906 18.449219 23.253906 18.515625 23.253906 C 19.058594 23.347656 19.417969 23.6875 19.792969 24.066406 C 19.84375 24.113281 19.894531 24.164062 19.941406 24.214844 C 20.046875 24.320312 20.152344 24.421875 20.253906 24.527344 C 20.410156 24.683594 20.574219 24.84375 20.730469 25.003906 C 20.832031 25.101562 20.933594 25.203125 21.035156 25.308594 C 21.082031 25.355469 21.128906 25.402344 21.179688 25.449219 C 21.546875 25.824219 21.691406 26.09375 21.746094 26.613281 C 21.714844 27.351562 21.246094 27.847656 20.765625 28.363281 C 20.523438 28.632812 20.523438 28.632812 20.488281 28.980469 C 20.5625 29.179688 20.5625 29.179688 20.652344 29.355469 C 20.84375 29.410156 20.84375 29.410156 21.074219 29.441406 C 21.164062 29.457031 21.253906 29.472656 21.339844 29.488281 C 21.527344 29.515625 21.714844 29.542969 21.902344 29.570312 C 22.816406 29.699219 22.816406 29.699219 23.203125 30.058594 C 23.535156 30.542969 23.605469 30.886719 23.597656 31.464844 C 23.597656 31.539062 23.597656 31.613281 23.597656 31.691406 C 23.597656 31.847656 23.597656 32 23.597656 32.15625 C 23.59375 32.394531 23.59375 32.628906 23.597656 32.867188 C 23.59375 33.019531 23.59375 33.167969 23.59375 33.324219 C 23.59375 33.394531 23.59375 33.464844 23.59375 33.535156 C 23.585938 34.035156 23.488281 34.402344 23.152344 34.789062 C 23.101562 34.832031 23.050781 34.871094 23 34.914062 C 22.949219 34.957031 22.902344 34.996094 22.851562 35.042969 C 22.386719 35.339844 21.902344 35.367188 21.371094 35.386719 C 21.300781 35.390625 21.230469 35.394531 21.160156 35.394531 C 20.992188 35.40625 20.824219 35.414062 20.652344 35.417969 C 20.515625 35.714844 20.515625 35.714844 20.484375 36.027344 C 20.605469 36.304688 20.808594 36.515625 21.003906 36.738281 C 21.460938 37.246094 21.460938 37.246094 21.535156 37.617188 C 23.816406 37.613281 26.101562 37.609375 28.382812 37.597656 C 29.441406 37.597656 30.5 37.59375 31.5625 37.59375 C 32.484375 37.59375 33.410156 37.589844 34.332031 37.585938 C 34.824219 37.582031 35.3125 37.582031 35.800781 37.582031 C 36.261719 37.582031 36.722656 37.582031 37.179688 37.578125 C 37.351562 37.578125 37.519531 37.578125 37.6875 37.578125 C 37.917969 37.578125 38.152344 37.574219 38.382812 37.574219 C 38.445312 37.574219 38.511719 37.574219 38.582031 37.574219 C 39.035156 37.570312 39.289062 37.460938 39.636719 37.175781 C 39.886719 36.789062 39.839844 36.332031 39.835938 35.882812 C 39.835938 35.714844 39.839844 35.546875 39.839844 35.378906 C 39.839844 35.113281 39.839844 34.847656 39.839844 34.582031 C 39.839844 34.328125 39.84375 34.070312 39.847656 33.816406 C 39.847656 33.730469 39.84375 33.65625 39.84375 33.574219 C 39.847656 33.183594 39.863281 33.011719 40.105469 32.691406 C 40.410156 32.46875 40.589844 32.464844 40.957031 32.519531 C 41.152344 32.660156 41.210938 32.738281 41.253906 32.976562 C 41.253906 33.050781 41.253906 33.125 41.253906 33.203125 C 41.257812 33.285156 41.257812 33.371094 41.261719 33.460938 C 41.261719 33.597656 41.261719 33.597656 41.261719 33.738281 C 41.261719 33.835938 41.261719 33.929688 41.265625 34.027344 C 41.265625 34.226562 41.265625 34.433594 41.265625 34.632812 C 41.265625 34.941406 41.269531 35.246094 41.273438 35.550781 C 41.273438 35.746094 41.273438 35.945312 41.273438 36.140625 C 41.273438 36.230469 41.277344 36.324219 41.277344 36.417969 C 41.269531 37.128906 41.097656 37.710938 40.609375 38.246094 C 40.027344 38.808594 39.398438 38.976562 38.613281 38.96875 C 38.539062 38.96875 38.464844 38.96875 38.390625 38.96875 C 38.144531 38.96875 37.902344 38.96875 37.660156 38.964844 C 37.480469 38.964844 37.304688 38.964844 37.128906 38.964844 C 36.652344 38.964844 36.175781 38.964844 35.699219 38.960938 C 35.203125 38.960938 34.707031 38.957031 34.207031 38.957031 C 33.261719 38.957031 32.320312 38.957031 31.378906 38.953125 C 30.304688 38.953125 29.230469 38.949219 28.15625 38.949219 C 25.949219 38.949219 23.742188 38.941406 21.535156 38.933594 C 21.511719 38.988281 21.484375 39.042969 21.460938 39.097656 C 21.316406 39.367188 21.105469 39.566406 20.890625 39.777344 C 20.84375 39.824219 20.796875 39.867188 20.753906 39.917969 C 20.652344 40.011719 20.558594 40.109375 20.460938 40.203125 C 20.316406 40.355469 20.167969 40.5 20.019531 40.648438 C 19.925781 40.742188 19.832031 40.835938 19.738281 40.929688 C 19.691406 40.972656 19.648438 41.019531 19.605469 41.0625 C 19.1875 41.476562 18.921875 41.597656 18.332031 41.605469 C 17.714844 41.59375 17.460938 41.433594 17.003906 41.019531 C 16.574219 40.605469 16.574219 40.605469 16.039062 40.398438 C 15.828125 40.421875 15.828125 40.421875 15.558594 40.519531 C 15.558594 40.621094 15.5625 40.730469 15.566406 40.832031 C 15.558594 42.480469 15.558594 42.480469 14.925781 43.117188 C 14.644531 43.339844 14.410156 43.4375 14.042969 43.445312 C 13.972656 43.445312 13.898438 43.449219 13.824219 43.449219 C 13.746094 43.449219 13.667969 43.449219 13.589844 43.449219 C 13.472656 43.449219 13.472656 43.449219 13.347656 43.449219 C 13.175781 43.449219 13.007812 43.449219 12.839844 43.449219 C 12.582031 43.449219 12.324219 43.453125 12.066406 43.457031 C 11.902344 43.457031 11.734375 43.457031 11.570312 43.457031 C 11.492188 43.457031 11.414062 43.460938 11.339844 43.460938 C 10.722656 43.457031 10.417969 43.261719 9.953125 42.855469 C 9.484375 42.261719 9.558594 41.242188 9.582031 40.519531 C 9.140625 40.402344 9.140625 40.402344 8.71875 40.511719 C 8.5625 40.632812 8.421875 40.761719 8.28125 40.894531 C 7.785156 41.359375 7.515625 41.597656 6.820312 41.605469 C 6.726562 41.605469 6.628906 41.609375 6.53125 41.613281 C 5.972656 41.535156 5.589844 41.128906 5.207031 40.738281 C 5.160156 40.691406 5.113281 40.644531 5.066406 40.597656 C 4.972656 40.503906 4.878906 40.410156 4.78125 40.3125 C 4.636719 40.167969 4.488281 40.019531 4.339844 39.875 C 4.25 39.78125 4.15625 39.6875 4.0625 39.59375 C 4.019531 39.550781 3.976562 39.511719 3.933594 39.464844 C 3.519531 39.046875 3.402344 38.785156 3.394531 38.199219 C 3.40625 37.574219 3.566406 37.324219 3.980469 36.867188 C 4.394531 36.441406 4.394531 36.441406 4.601562 35.902344 C 4.578125 35.691406 4.578125 35.691406 4.480469 35.417969 C 4.378906 35.421875 4.269531 35.425781 4.167969 35.433594 C 2.519531 35.417969 2.519531 35.417969 1.882812 34.789062 C 1.660156 34.503906 1.5625 34.269531 1.554688 33.910156 C 1.554688 33.800781 1.554688 33.800781 1.550781 33.6875 C 1.550781 33.609375 1.550781 33.535156 1.550781 33.453125 C 1.550781 33.375 1.550781 33.292969 1.550781 33.210938 C 1.550781 33.042969 1.550781 32.871094 1.550781 32.699219 C 1.550781 32.441406 1.546875 32.183594 1.542969 31.925781 C 1.542969 31.761719 1.542969 31.597656 1.542969 31.433594 C 1.542969 31.355469 1.539062 31.277344 1.539062 31.199219 C 1.542969 30.585938 1.738281 30.28125 2.144531 29.816406 C 2.738281 29.347656 3.757812 29.417969 4.480469 29.441406 C 4.597656 29.003906 4.597656 29.003906 4.488281 28.582031 C 4.367188 28.425781 4.238281 28.285156 4.105469 28.144531 C 3.640625 27.652344 3.402344 27.378906 3.394531 26.683594 C 3.394531 26.589844 3.390625 26.488281 3.386719 26.394531 C 3.464844 25.832031 3.871094 25.453125 4.261719 25.070312 C 4.308594 25.023438 4.355469 24.980469 4.402344 24.933594 C 4.496094 24.835938 4.589844 24.742188 4.6875 24.644531 C 4.832031 24.5 4.980469 24.351562 5.125 24.207031 C 5.21875 24.113281 5.3125 24.019531 5.40625 23.925781 C 5.46875 23.863281 5.46875 23.863281 5.535156 23.792969 C 5.890625 23.441406 6.152344 23.269531 6.660156 23.253906 C 7.457031 23.28125 7.941406 23.710938 8.507812 24.234375 C 8.648438 24.367188 8.648438 24.367188 8.878906 24.519531 C 9.070312 24.519531 9.070312 24.519531 9.230469 24.433594 C 9.316406 24.402344 9.402344 24.375 9.492188 24.347656 C 9.582031 24.070312 9.605469 23.816406 9.628906 23.53125 C 9.742188 22.199219 9.742188 22.199219 10.195312 21.796875 C 10.683594 21.46875 11.019531 21.394531 11.601562 21.402344 Z M 10.988281 22.941406 C 10.949219 23.152344 10.949219 23.152344 10.941406 23.40625 C 10.9375 23.5 10.933594 23.589844 10.925781 23.6875 C 10.917969 23.886719 10.902344 24.082031 10.894531 24.277344 C 10.890625 24.371094 10.882812 24.464844 10.878906 24.558594 C 10.871094 24.6875 10.871094 24.6875 10.863281 24.816406 C 10.796875 25.105469 10.6875 25.214844 10.457031 25.402344 C 10.199219 25.527344 10.199219 25.527344 9.917969 25.636719 C 9.824219 25.671875 9.734375 25.710938 9.636719 25.75 C 9.523438 25.792969 9.523438 25.792969 9.402344 25.839844 C 9.316406 25.882812 9.316406 25.882812 9.230469 25.925781 C 8.644531 25.996094 8.644531 25.996094 8.359375 25.832031 C 8.191406 25.699219 8.039062 25.5625 7.890625 25.417969 C 7.785156 25.320312 7.679688 25.222656 7.574219 25.128906 C 7.523438 25.082031 7.476562 25.039062 7.425781 24.996094 C 7.199219 24.785156 7.199219 24.785156 6.941406 24.609375 C 6.441406 24.652344 6.105469 25.136719 5.769531 25.472656 C 5.644531 25.601562 5.511719 25.730469 5.378906 25.859375 C 5.292969 25.941406 5.214844 26.023438 5.128906 26.105469 C 5.054688 26.183594 4.976562 26.257812 4.902344 26.335938 C 4.726562 26.527344 4.726562 26.527344 4.753906 26.730469 C 4.890625 27.007812 5.101562 27.230469 5.308594 27.464844 C 6.117188 28.402344 6.117188 28.402344 6.101562 28.882812 C 6.027344 29.304688 5.816406 29.679688 5.625 30.058594 C 5.574219 30.164062 5.527344 30.269531 5.476562 30.375 C 5.363281 30.585938 5.363281 30.585938 5.183594 30.675781 C 5.027344 30.691406 4.871094 30.703125 4.714844 30.714844 C 4.621094 30.722656 4.527344 30.726562 4.429688 30.734375 C 4.230469 30.75 4.03125 30.761719 3.832031 30.777344 C 3.738281 30.78125 3.644531 30.792969 3.550781 30.796875 C 3.464844 30.800781 3.375 30.808594 3.285156 30.816406 C 3.058594 30.832031 3.058594 30.832031 2.902344 31.027344 C 2.875 31.3125 2.875 31.3125 2.878906 31.652344 C 2.878906 31.714844 2.878906 31.777344 2.878906 31.835938 C 2.878906 31.96875 2.878906 32.101562 2.878906 32.230469 C 2.878906 32.433594 2.878906 32.628906 2.878906 32.832031 C 2.878906 32.957031 2.878906 33.085938 2.878906 33.210938 C 2.878906 33.328125 2.878906 33.441406 2.878906 33.5625 C 2.871094 33.847656 2.871094 33.847656 3.074219 34.011719 C 3.289062 34.050781 3.289062 34.050781 3.542969 34.058594 C 3.683594 34.066406 3.683594 34.066406 3.824219 34.074219 C 4.023438 34.082031 4.21875 34.097656 4.410156 34.105469 C 4.503906 34.109375 4.597656 34.117188 4.695312 34.121094 C 4.824219 34.128906 4.824219 34.128906 4.953125 34.136719 C 5.246094 34.203125 5.347656 34.3125 5.535156 34.542969 C 5.6875 34.820312 5.6875 34.820312 5.820312 35.136719 C 5.867188 35.238281 5.914062 35.339844 5.960938 35.445312 C 6.074219 35.808594 6.152344 36.101562 6.066406 36.472656 C 5.925781 36.71875 5.746094 36.910156 5.554688 37.109375 C 5.457031 37.214844 5.363281 37.320312 5.269531 37.425781 C 5.199219 37.5 5.199219 37.5 5.132812 37.574219 C 4.921875 37.800781 4.921875 37.800781 4.746094 38.058594 C 4.785156 38.558594 5.273438 38.894531 5.609375 39.230469 C 5.738281 39.355469 5.867188 39.488281 5.996094 39.621094 C 6.078125 39.707031 6.160156 39.785156 6.242188 39.871094 C 6.355469 39.984375 6.355469 39.984375 6.472656 40.097656 C 6.660156 40.273438 6.660156 40.273438 6.867188 40.246094 C 7.144531 40.109375 7.367188 39.898438 7.601562 39.691406 C 8.535156 38.882812 8.535156 38.882812 9.019531 38.898438 C 9.441406 38.972656 9.816406 39.183594 10.195312 39.375 C 10.300781 39.425781 10.40625 39.472656 10.511719 39.523438 C 10.722656 39.636719 10.722656 39.636719 10.808594 39.816406 C 10.828125 39.972656 10.839844 40.128906 10.851562 40.289062 C 10.855469 40.378906 10.863281 40.472656 10.871094 40.570312 C 10.886719 40.769531 10.898438 40.96875 10.914062 41.167969 C 10.917969 41.261719 10.925781 41.355469 10.933594 41.449219 C 10.941406 41.535156 10.945312 41.625 10.949219 41.714844 C 10.96875 41.941406 10.96875 41.941406 11.160156 42.097656 C 11.449219 42.125 11.449219 42.125 11.789062 42.121094 C 11.882812 42.121094 11.882812 42.121094 11.972656 42.121094 C 12.105469 42.121094 12.238281 42.121094 12.367188 42.121094 C 12.566406 42.121094 12.769531 42.121094 12.96875 42.121094 C 13.097656 42.121094 13.222656 42.121094 13.347656 42.121094 C 13.464844 42.121094 13.578125 42.121094 13.699219 42.121094 C 13.984375 42.128906 13.984375 42.128906 14.152344 41.925781 C 14.183594 41.710938 14.183594 41.710938 14.195312 41.457031 C 14.203125 41.316406 14.203125 41.316406 14.210938 41.175781 C 14.222656 40.976562 14.230469 40.78125 14.242188 40.589844 C 14.246094 40.496094 14.253906 40.402344 14.257812 40.304688 C 14.265625 40.21875 14.269531 40.132812 14.273438 40.046875 C 14.339844 39.753906 14.449219 39.652344 14.675781 39.464844 C 14.957031 39.3125 14.957031 39.3125 15.273438 39.179688 C 15.375 39.132812 15.476562 39.085938 15.582031 39.039062 C 15.941406 38.925781 16.238281 38.847656 16.613281 38.933594 C 16.855469 39.074219 17.046875 39.253906 17.246094 39.445312 C 17.351562 39.542969 17.457031 39.636719 17.5625 39.730469 C 17.636719 39.800781 17.636719 39.800781 17.710938 39.867188 C 17.9375 40.078125 17.9375 40.078125 18.191406 40.253906 C 18.699219 40.214844 19.03125 39.726562 19.363281 39.390625 C 19.496094 39.261719 19.625 39.132812 19.757812 39.003906 C 19.84375 38.921875 19.921875 38.839844 20.007812 38.757812 C 20.121094 38.644531 20.121094 38.644531 20.234375 38.527344 C 20.410156 38.339844 20.410156 38.339844 20.386719 38.132812 C 20.246094 37.855469 20.035156 37.632812 19.828125 37.398438 C 19.703125 37.246094 19.574219 37.101562 19.449219 36.953125 C 19.359375 36.851562 19.265625 36.753906 19.175781 36.660156 C 19.011719 36.371094 19.027344 36.089844 19.074219 35.769531 C 19.148438 35.511719 19.25 35.277344 19.363281 35.035156 C 19.386719 34.972656 19.417969 34.910156 19.445312 34.847656 C 19.585938 34.539062 19.664062 34.378906 19.949219 34.191406 C 20.171875 34.152344 20.171875 34.152344 20.433594 34.140625 C 20.574219 34.128906 20.574219 34.128906 20.714844 34.121094 C 20.910156 34.105469 21.113281 34.097656 21.308594 34.082031 C 21.449219 34.074219 21.449219 34.074219 21.589844 34.0625 C 21.675781 34.058594 21.761719 34.050781 21.847656 34.050781 C 22.078125 34.03125 22.078125 34.03125 22.238281 33.839844 C 22.261719 33.550781 22.261719 33.550781 22.261719 33.210938 C 22.261719 33.117188 22.261719 33.117188 22.261719 33.027344 C 22.261719 32.894531 22.261719 32.761719 22.261719 32.632812 C 22.257812 32.433594 22.261719 32.230469 22.261719 32.03125 C 22.261719 31.902344 22.261719 31.777344 22.261719 31.652344 C 22.261719 31.480469 22.261719 31.480469 22.261719 31.300781 C 22.265625 31.015625 22.265625 31.015625 22.058594 30.847656 C 21.847656 30.816406 21.847656 30.816406 21.59375 30.804688 C 21.5 30.800781 21.410156 30.796875 21.3125 30.789062 C 21.113281 30.777344 20.917969 30.769531 20.722656 30.757812 C 20.628906 30.753906 20.535156 30.746094 20.441406 30.742188 C 20.355469 30.734375 20.269531 30.730469 20.183594 30.726562 C 19.894531 30.660156 19.785156 30.550781 19.597656 30.324219 C 19.472656 30.0625 19.472656 30.0625 19.363281 29.785156 C 19.328125 29.691406 19.289062 29.597656 19.25 29.503906 C 19.222656 29.425781 19.191406 29.347656 19.160156 29.269531 C 19.128906 29.207031 19.101562 29.152344 19.074219 29.089844 C 19.003906 28.507812 19.003906 28.507812 19.167969 28.222656 C 19.300781 28.054688 19.4375 27.902344 19.582031 27.753906 C 19.679688 27.648438 19.777344 27.542969 19.871094 27.4375 C 19.917969 27.386719 19.960938 27.339844 20.003906 27.289062 C 20.214844 27.0625 20.214844 27.0625 20.390625 26.808594 C 20.347656 26.300781 19.863281 25.96875 19.527344 25.636719 C 19.398438 25.503906 19.269531 25.375 19.140625 25.242188 C 19.058594 25.15625 18.976562 25.078125 18.894531 24.992188 C 18.816406 24.917969 18.742188 24.839844 18.664062 24.765625 C 18.472656 24.589844 18.472656 24.589844 18.269531 24.613281 C 17.992188 24.753906 17.769531 24.964844 17.535156 25.171875 C 17.386719 25.296875 17.238281 25.425781 17.089844 25.550781 C 16.988281 25.640625 16.894531 25.734375 16.796875 25.824219 C 16.503906 25.988281 16.222656 25.972656 15.910156 25.925781 C 15.652344 25.851562 15.417969 25.75 15.167969 25.636719 C 15.109375 25.613281 15.046875 25.582031 14.980469 25.554688 C 14.675781 25.414062 14.515625 25.335938 14.324219 25.050781 C 14.292969 24.828125 14.292969 24.828125 14.277344 24.566406 C 14.269531 24.425781 14.269531 24.425781 14.253906 24.285156 C 14.246094 24.089844 14.230469 23.886719 14.222656 23.691406 C 14.207031 23.550781 14.207031 23.550781 14.199219 23.410156 C 14.195312 23.324219 14.1875 23.238281 14.183594 23.152344 C 14.167969 22.921875 14.167969 22.921875 13.972656 22.761719 C 13.6875 22.738281 13.6875 22.738281 13.347656 22.738281 C 13.253906 22.738281 13.253906 22.738281 13.164062 22.738281 C 13.03125 22.738281 12.898438 22.738281 12.769531 22.738281 C 12.566406 22.742188 12.371094 22.738281 12.167969 22.738281 C 12.042969 22.738281 11.914062 22.738281 11.789062 22.738281 C 11.671875 22.738281 11.558594 22.738281 11.4375 22.738281 C 11.152344 22.734375 11.152344 22.734375 10.988281 22.941406 Z M 10.988281 22.941406 "/>
<path style=" stroke:none;fill-rule:nonzero;fill:rgb(34.117647%,35.294118%,32.156863%);fill-opacity:1;" d="M 33.5 10.589844 C 33.589844 10.589844 33.589844 10.589844 33.675781 10.589844 C 33.800781 10.585938 33.921875 10.589844 34.046875 10.589844 C 34.234375 10.589844 34.417969 10.589844 34.609375 10.585938 C 34.726562 10.589844 34.847656 10.589844 34.964844 10.589844 C 35.128906 10.589844 35.128906 10.589844 35.292969 10.589844 C 35.71875 10.652344 35.980469 10.832031 36.265625 11.144531 C 36.417969 11.386719 36.421875 11.53125 36.421875 11.8125 C 36.421875 11.90625 36.421875 12.003906 36.421875 12.097656 C 36.421875 12.207031 36.421875 12.308594 36.421875 12.417969 C 36.421875 12.53125 36.421875 12.636719 36.421875 12.753906 C 36.425781 13.058594 36.425781 13.359375 36.425781 13.664062 C 36.425781 13.917969 36.425781 14.167969 36.425781 14.421875 C 36.425781 15.019531 36.425781 15.617188 36.425781 16.214844 C 36.425781 16.832031 36.425781 17.449219 36.425781 18.066406 C 36.429688 18.59375 36.429688 19.125 36.429688 19.652344 C 36.429688 19.96875 36.429688 20.285156 36.429688 20.601562 C 36.433594 20.953125 36.433594 21.308594 36.429688 21.660156 C 36.433594 21.816406 36.433594 21.816406 36.433594 21.976562 C 36.425781 22.523438 36.421875 22.882812 36.035156 23.292969 C 35.746094 23.472656 35.519531 23.488281 35.179688 23.488281 C 35.027344 23.492188 35.027344 23.492188 34.871094 23.492188 C 34.703125 23.492188 34.703125 23.492188 34.527344 23.492188 C 34.410156 23.492188 34.292969 23.496094 34.171875 23.496094 C 33.847656 23.5 33.519531 23.5 33.199219 23.5 C 32.996094 23.5 32.792969 23.503906 32.589844 23.503906 C 31.882812 23.503906 31.175781 23.503906 30.464844 23.503906 C 29.808594 23.503906 29.148438 23.507812 28.488281 23.511719 C 27.921875 23.511719 27.355469 23.515625 26.789062 23.515625 C 26.453125 23.515625 26.113281 23.515625 25.773438 23.519531 C 25.457031 23.519531 25.136719 23.519531 24.820312 23.519531 C 24.648438 23.519531 24.472656 23.519531 24.304688 23.523438 C 23.460938 23.515625 23.460938 23.515625 23.140625 23.265625 C 22.847656 22.917969 22.742188 22.710938 22.738281 22.257812 C 22.738281 22.175781 22.734375 22.09375 22.734375 22.007812 C 22.734375 21.917969 22.734375 21.828125 22.734375 21.738281 C 22.734375 21.644531 22.730469 21.554688 22.730469 21.460938 C 22.730469 21.261719 22.730469 21.070312 22.730469 20.878906 C 22.730469 20.578125 22.730469 20.28125 22.726562 19.988281 C 22.722656 19.796875 22.722656 19.609375 22.722656 19.421875 C 22.722656 19.332031 22.71875 19.242188 22.71875 19.152344 C 22.722656 18.628906 22.769531 18.332031 23.113281 17.929688 C 23.53125 17.527344 23.921875 17.542969 24.46875 17.546875 C 24.570312 17.550781 24.671875 17.554688 24.773438 17.558594 C 24.875 17.558594 24.980469 17.558594 25.082031 17.558594 C 25.335938 17.5625 25.589844 17.574219 25.839844 17.578125 C 25.835938 17.480469 25.832031 17.386719 25.828125 17.289062 C 25.824219 17.160156 25.824219 17.035156 25.820312 16.910156 C 25.816406 16.847656 25.808594 16.785156 25.808594 16.714844 C 25.800781 16.261719 25.878906 16.003906 26.191406 15.644531 C 26.605469 15.242188 26.996094 15.257812 27.542969 15.261719 C 27.648438 15.261719 27.746094 15.269531 27.847656 15.273438 C 27.953125 15.273438 28.054688 15.277344 28.160156 15.277344 C 28.410156 15.277344 28.664062 15.285156 28.917969 15.292969 C 28.914062 15.191406 28.90625 15.089844 28.902344 14.984375 C 28.898438 14.851562 28.898438 14.714844 28.894531 14.578125 C 28.894531 14.511719 28.886719 14.445312 28.882812 14.375 C 28.878906 13.902344 28.945312 13.640625 29.269531 13.269531 C 29.683594 12.871094 30.074219 12.886719 30.621094 12.886719 C 30.722656 12.890625 30.824219 12.894531 30.925781 12.898438 C 31.027344 12.898438 31.128906 12.902344 31.238281 12.902344 C 31.488281 12.90625 31.738281 12.914062 31.992188 12.917969 C 31.988281 12.824219 31.984375 12.730469 31.980469 12.628906 C 31.972656 12.503906 31.972656 12.375 31.972656 12.253906 C 31.96875 12.1875 31.964844 12.125 31.960938 12.058594 C 31.953125 11.601562 32.035156 11.34375 32.34375 10.988281 C 32.738281 10.671875 33 10.589844 33.5 10.589844 Z M 33.5 10.589844 "/>
<path style=" stroke:none;fill-rule:nonzero;fill:rgb(9.411765%,67.843137%,85.882353%);fill-opacity:1;" d="M 15.660156 27.824219 C 15.820312 27.949219 15.820312 27.949219 15.996094 28.214844 C 15.976562 28.328125 15.957031 28.441406 15.933594 28.558594 C 15.902344 28.738281 15.902344 28.738281 15.910156 28.917969 C 16.074219 29.152344 16.074219 29.152344 16.347656 29.269531 C 16.453125 29.269531 16.554688 29.269531 16.660156 29.269531 C 16.964844 29.269531 16.964844 29.269531 17.152344 29.390625 C 17.789062 30.285156 18.070312 31.261719 18.0625 32.355469 C 18.0625 32.441406 18.0625 32.53125 18.058594 32.621094 C 18.03125 33.816406 17.695312 34.816406 16.964844 35.769531 C 16.90625 35.84375 16.847656 35.921875 16.789062 36 C 15.984375 36.972656 14.792969 37.691406 13.535156 37.878906 C 11.699219 38.03125 10.253906 37.730469 8.816406 36.511719 C 7.722656 35.464844 7.121094 34.171875 7.074219 32.660156 C 7.074219 31.914062 7.085938 31.191406 7.382812 30.496094 C 7.417969 30.410156 7.457031 30.324219 7.492188 30.238281 C 8.125 28.871094 9.195312 27.773438 10.621094 27.238281 C 10.828125 27.175781 11.039062 27.121094 11.25 27.070312 C 11.300781 27.054688 11.355469 27.042969 11.410156 27.027344 C 12.867188 26.699219 14.417969 27.042969 15.660156 27.824219 Z M 15.660156 27.824219 "/>
<path style=" stroke:none;fill-rule:nonzero;fill:rgb(99.607843%,69.019608%,32.941176%);fill-opacity:1;" d="M 39.023438 9.492188 C 40.039062 9.492188 41.054688 9.492188 42.097656 9.492188 C 42.132812 11.710938 42.160156 13.925781 42.171875 16.144531 C 42.179688 17.175781 42.1875 18.207031 42.207031 19.234375 C 42.21875 20.132812 42.230469 21.03125 42.230469 21.933594 C 42.234375 22.40625 42.238281 22.878906 42.25 23.355469 C 42.300781 25.824219 42.050781 27.769531 40.691406 29.882812 C 40.605469 29.972656 40.605469 29.972656 40.519531 30.058594 C 40.347656 29.707031 40.175781 29.355469 40.007812 29.003906 C 39.949219 28.882812 39.890625 28.761719 39.832031 28.644531 C 39.75 28.472656 39.664062 28.300781 39.582031 28.128906 C 39.535156 28.023438 39.480469 27.917969 39.429688 27.816406 C 39.382812 27.714844 39.335938 27.613281 39.285156 27.511719 C 39.238281 27.417969 39.195312 27.324219 39.144531 27.230469 C 39 26.878906 38.988281 26.539062 38.992188 26.160156 C 38.992188 26.089844 38.992188 26.015625 38.992188 25.941406 C 38.992188 25.707031 38.992188 25.464844 38.996094 25.226562 C 38.996094 25.054688 38.996094 24.886719 38.996094 24.710938 C 38.996094 24.25 38.996094 23.785156 38.996094 23.316406 C 38.996094 22.832031 39 22.34375 39 21.863281 C 39 20.9375 39.003906 20.019531 39.003906 19.097656 C 39.003906 18.050781 39.007812 17.003906 39.007812 15.957031 C 39.011719 13.800781 39.019531 11.648438 39.023438 9.492188 Z M 39.023438 9.492188 "/>
<path style=" stroke:none;fill-rule:nonzero;fill:rgb(31.764706%,34.117647%,32.54902%);fill-opacity:1;" d="M 15.660156 27.824219 C 15.820312 27.949219 15.820312 27.949219 15.996094 28.214844 C 15.980469 28.75 15.980469 28.75 15.757812 28.996094 C 15.496094 29.121094 15.320312 29.113281 15.027344 29.089844 C 14.765625 28.984375 14.765625 28.984375 14.503906 28.839844 C 13.5 28.300781 12.394531 28.207031 11.277344 28.460938 C 11.019531 28.566406 10.785156 28.683594 10.546875 28.828125 C 10.421875 28.902344 10.421875 28.902344 10.289062 28.984375 C 9.703125 29.371094 9.308594 29.800781 8.964844 30.410156 C 8.921875 30.484375 8.878906 30.558594 8.832031 30.636719 C 8.367188 31.546875 8.386719 32.667969 8.597656 33.652344 C 8.964844 34.683594 9.589844 35.492188 10.546875 36.035156 C 10.621094 36.078125 10.695312 36.121094 10.773438 36.167969 C 11.683594 36.632812 12.800781 36.613281 13.785156 36.402344 C 14.953125 35.992188 15.730469 35.277344 16.308594 34.199219 C 16.753906 33.21875 16.800781 31.964844 16.429688 30.941406 C 16.34375 30.753906 16.246094 30.570312 16.152344 30.390625 C 16.019531 30.140625 15.996094 30.058594 16.003906 29.769531 C 16.128906 29.394531 16.128906 29.394531 16.347656 29.269531 C 16.667969 29.226562 16.871094 29.207031 17.152344 29.390625 C 17.789062 30.285156 18.070312 31.261719 18.0625 32.355469 C 18.0625 32.441406 18.0625 32.53125 18.058594 32.621094 C 18.03125 33.816406 17.695312 34.816406 16.964844 35.769531 C 16.90625 35.84375 16.847656 35.921875 16.789062 36 C 15.984375 36.972656 14.792969 37.691406 13.535156 37.878906 C 11.699219 38.03125 10.253906 37.730469 8.816406 36.511719 C 7.722656 35.464844 7.121094 34.171875 7.074219 32.660156 C 7.074219 31.914062 7.085938 31.191406 7.382812 30.496094 C 7.417969 30.410156 7.457031 30.324219 7.492188 30.238281 C 8.125 28.871094 9.195312 27.773438 10.621094 27.238281 C 10.828125 27.175781 11.039062 27.121094 11.25 27.070312 C 11.300781 27.054688 11.355469 27.042969 11.410156 27.027344 C 12.867188 26.699219 14.417969 27.042969 15.660156 27.824219 Z M 15.660156 27.824219 "/>
<path style=" stroke:none;fill-rule:nonzero;fill:rgb(92.156863%,84.705882%,76.470588%);fill-opacity:1;" d="M 7.382812 10.898438 C 8.71875 10.898438 10.050781 10.898438 11.425781 10.898438 C 11.425781 10.925781 11.425781 10.957031 11.425781 10.988281 C 10.757812 10.988281 10.089844 10.988281 9.402344 10.988281 C 9.433594 15.425781 9.464844 19.863281 9.492188 24.433594 C 9.140625 24.609375 9.140625 24.609375 8.972656 24.605469 C 8.652344 24.460938 8.40625 24.207031 8.148438 23.972656 C 7.710938 23.59375 7.261719 23.378906 6.679688 23.292969 C 6.679688 23.089844 6.679688 22.886719 6.679688 22.675781 C 6.765625 22.636719 6.847656 22.589844 6.9375 22.550781 C 7.191406 22.4375 7.191406 22.4375 7.292969 22.324219 C 7.304688 22.175781 7.308594 22.027344 7.308594 21.878906 C 7.308594 21.734375 7.308594 21.734375 7.3125 21.589844 C 7.3125 21.480469 7.3125 21.375 7.3125 21.265625 C 7.3125 21.152344 7.316406 21.042969 7.316406 20.925781 C 7.316406 20.621094 7.316406 20.316406 7.320312 20.007812 C 7.324219 19.6875 7.328125 19.367188 7.332031 19.050781 C 7.332031 18.441406 7.335938 17.835938 7.339844 17.230469 C 7.34375 16.542969 7.347656 15.847656 7.355469 15.160156 C 7.363281 13.738281 7.375 12.320312 7.382812 10.898438 Z M 7.382812 10.898438 "/>
<path style=" stroke:none;fill-rule:nonzero;fill:rgb(32.156863%,34.117647%,32.54902%);fill-opacity:1;" d="M 14.253906 30.101562 C 14.796875 30.542969 15.285156 31.105469 15.378906 31.816406 C 15.453125 32.792969 15.371094 33.546875 14.726562 34.3125 C 14.175781 34.890625 13.691406 35.199219 12.886719 35.269531 C 11.980469 35.292969 11.390625 35.199219 10.695312 34.609375 C 10.148438 34.082031 9.800781 33.519531 9.730469 32.753906 C 9.726562 31.699219 9.863281 31.117188 10.597656 30.34375 C 11.609375 29.40625 13.109375 29.3125 14.253906 30.101562 Z M 14.253906 30.101562 "/>
<path style=" stroke:none;fill-rule:nonzero;fill:rgb(94.117647%,60.392157%,25.098039%);fill-opacity:1;" d="M 39.023438 9.492188 C 39.371094 9.492188 39.722656 9.492188 40.078125 9.492188 C 40.078125 9.582031 40.078125 9.667969 40.078125 9.757812 C 40.070312 11.917969 40.0625 14.082031 40.066406 16.238281 C 40.066406 17.28125 40.066406 18.324219 40.058594 19.371094 C 40.058594 20.28125 40.058594 21.191406 40.058594 22.105469 C 40.058594 22.585938 40.058594 23.066406 40.058594 23.550781 C 39.972656 26.328125 39.972656 26.328125 41.042969 28.828125 C 41.089844 28.917969 41.089844 28.917969 41.132812 29.003906 C 41.027344 29.25 41.027344 29.25 40.875 29.542969 C 40.824219 29.636719 40.777344 29.738281 40.726562 29.832031 C 40.683594 29.910156 40.644531 29.980469 40.605469 30.058594 C 38.953125 27.9375 38.835938 25.683594 38.886719 23.09375 C 38.898438 22.613281 38.902344 22.132812 38.902344 21.65625 C 38.902344 20.75 38.914062 19.847656 38.929688 18.941406 C 38.945312 17.910156 38.949219 16.878906 38.957031 15.847656 C 38.972656 13.730469 38.996094 11.609375 39.023438 9.492188 Z M 39.023438 9.492188 "/>
<path style=" stroke:none;fill-rule:nonzero;fill:rgb(95.686275%,39.215686%,30.196078%);fill-opacity:1;" d="M 33.398438 12.042969 C 33.949219 12.042969 34.5 12.042969 35.066406 12.042969 C 35.066406 15.378906 35.066406 18.710938 35.066406 22.148438 C 34.519531 22.148438 33.964844 22.148438 33.398438 22.148438 C 33.398438 18.8125 33.398438 15.476562 33.398438 12.042969 Z M 33.398438 12.042969 "/>
<path style=" stroke:none;fill-rule:nonzero;fill:rgb(32.156863%,33.72549%,31.764706%);fill-opacity:1;" d="M 25.386719 29.847656 C 25.472656 29.847656 25.558594 29.847656 25.644531 29.847656 C 25.738281 29.847656 25.832031 29.847656 25.929688 29.847656 C 26.03125 29.847656 26.128906 29.847656 26.230469 29.847656 C 26.558594 29.84375 26.886719 29.84375 27.210938 29.84375 C 27.441406 29.84375 27.667969 29.84375 27.894531 29.84375 C 28.371094 29.839844 28.847656 29.839844 29.324219 29.84375 C 29.875 29.84375 30.425781 29.84375 30.976562 29.839844 C 31.503906 29.839844 32.035156 29.839844 32.566406 29.839844 C 32.792969 29.839844 33.015625 29.839844 33.238281 29.839844 C 33.558594 29.835938 33.871094 29.835938 34.1875 29.839844 C 34.277344 29.839844 34.375 29.835938 34.472656 29.835938 C 35.097656 29.839844 35.097656 29.839844 35.390625 30.042969 C 35.5625 30.324219 35.554688 30.519531 35.507812 30.847656 C 35.390625 31.042969 35.390625 31.042969 35.15625 31.199219 C 34.832031 31.253906 34.515625 31.25 34.191406 31.246094 C 34.039062 31.25 34.039062 31.25 33.886719 31.25 C 33.558594 31.253906 33.234375 31.253906 32.90625 31.25 C 32.679688 31.25 32.453125 31.253906 32.226562 31.253906 C 31.75 31.253906 31.273438 31.253906 30.796875 31.253906 C 30.25 31.25 29.699219 31.253906 29.148438 31.253906 C 28.617188 31.257812 28.089844 31.257812 27.558594 31.257812 C 27.332031 31.257812 27.109375 31.257812 26.886719 31.257812 C 26.570312 31.261719 26.253906 31.257812 25.941406 31.257812 C 25.847656 31.257812 25.753906 31.257812 25.660156 31.261719 C 25.238281 31.253906 25.027344 31.25 24.679688 31 C 24.519531 30.761719 24.519531 30.761719 24.515625 30.441406 C 24.660156 29.972656 24.910156 29.851562 25.386719 29.847656 Z M 25.386719 29.847656 "/>
<path style=" stroke:none;fill-rule:nonzero;fill:rgb(32.54902%,34.117647%,32.156863%);fill-opacity:1;" d="M 11.515625 15.773438 C 11.617188 15.773438 11.714844 15.773438 11.816406 15.773438 C 12.144531 15.769531 12.472656 15.773438 12.796875 15.773438 C 13.027344 15.773438 13.253906 15.773438 13.480469 15.773438 C 13.957031 15.769531 14.433594 15.773438 14.910156 15.773438 C 15.460938 15.777344 16.011719 15.777344 16.5625 15.773438 C 17.089844 15.769531 17.621094 15.769531 18.152344 15.773438 C 18.378906 15.773438 18.601562 15.773438 18.824219 15.769531 C 19.144531 15.769531 19.457031 15.773438 19.773438 15.773438 C 19.863281 15.773438 19.960938 15.773438 20.058594 15.773438 C 20.6875 15.777344 20.6875 15.777344 20.972656 15.980469 C 21.136719 16.238281 21.1875 16.398438 21.183594 16.699219 C 21.003906 16.964844 20.859375 17.113281 20.539062 17.179688 C 20.277344 17.195312 20.019531 17.199219 19.761719 17.195312 C 19.613281 17.195312 19.613281 17.195312 19.460938 17.195312 C 19.136719 17.199219 18.808594 17.195312 18.480469 17.195312 C 18.253906 17.195312 18.027344 17.195312 17.800781 17.195312 C 17.324219 17.195312 16.847656 17.191406 16.371094 17.191406 C 15.820312 17.1875 15.273438 17.1875 14.722656 17.191406 C 14.195312 17.191406 13.664062 17.191406 13.132812 17.1875 C 12.910156 17.1875 12.683594 17.1875 12.460938 17.191406 C 12.144531 17.191406 11.832031 17.1875 11.511719 17.183594 C 11.375 17.183594 11.375 17.183594 11.230469 17.1875 C 10.605469 17.179688 10.605469 17.179688 10.3125 16.980469 C 10.140625 16.695312 10.148438 16.5 10.195312 16.171875 C 10.496094 15.679688 11 15.769531 11.515625 15.773438 Z M 11.515625 15.773438 "/>
<path style=" stroke:none;fill-rule:nonzero;fill:rgb(97.647059%,82.745098%,41.960784%);fill-opacity:1;" d="M 30.324219 14.324219 C 30.871094 14.324219 31.425781 14.324219 31.992188 14.324219 C 31.992188 16.90625 31.992188 19.488281 31.992188 22.148438 C 31.441406 22.148438 30.890625 22.148438 30.324219 22.148438 C 30.324219 19.566406 30.324219 16.988281 30.324219 14.324219 Z M 30.324219 14.324219 "/>
<path style=" stroke:none;fill-rule:nonzero;fill:rgb(32.156863%,33.72549%,31.764706%);fill-opacity:1;" d="M 28.167969 26.859375 C 28.28125 26.859375 28.28125 26.859375 28.390625 26.859375 C 28.640625 26.855469 28.886719 26.855469 29.136719 26.855469 C 29.308594 26.855469 29.480469 26.855469 29.652344 26.855469 C 30.011719 26.855469 30.375 26.855469 30.730469 26.855469 C 31.195312 26.855469 31.660156 26.855469 32.121094 26.855469 C 32.476562 26.851562 32.832031 26.851562 33.1875 26.851562 C 33.355469 26.851562 33.527344 26.851562 33.699219 26.851562 C 33.933594 26.847656 34.171875 26.847656 34.410156 26.851562 C 34.519531 26.847656 34.519531 26.847656 34.625 26.847656 C 34.9375 26.855469 35.121094 26.867188 35.375 27.050781 C 35.570312 27.332031 35.554688 27.527344 35.507812 27.863281 C 35.375 28.054688 35.375 28.054688 35.15625 28.214844 C 34.898438 28.246094 34.671875 28.261719 34.414062 28.261719 C 34.339844 28.261719 34.261719 28.261719 34.1875 28.261719 C 33.941406 28.265625 33.695312 28.265625 33.445312 28.261719 C 33.277344 28.261719 33.097656 28.265625 32.929688 28.265625 C 32.570312 28.265625 32.207031 28.265625 31.851562 28.265625 C 31.386719 28.261719 30.925781 28.265625 30.464844 28.265625 C 30.113281 28.269531 29.757812 28.269531 29.398438 28.269531 C 29.230469 28.269531 29.058594 28.269531 28.890625 28.269531 C 28.652344 28.269531 28.414062 28.269531 28.175781 28.269531 C 28.074219 28.269531 28.074219 28.269531 27.964844 28.269531 C 27.609375 28.265625 27.441406 28.226562 27.15625 28.011719 C 26.980469 27.773438 26.980469 27.773438 26.976562 27.453125 C 27.167969 26.839844 27.585938 26.855469 28.167969 26.859375 Z M 28.167969 26.859375 "/>
<path style=" stroke:none;fill-rule:nonzero;fill:rgb(32.54902%,34.117647%,32.156863%);fill-opacity:1;" d="M 13.753906 12.785156 C 13.828125 12.785156 13.902344 12.785156 13.976562 12.785156 C 14.226562 12.78125 14.472656 12.785156 14.722656 12.785156 C 14.894531 12.785156 15.066406 12.785156 15.238281 12.785156 C 15.597656 12.78125 15.960938 12.785156 16.316406 12.785156 C 16.78125 12.789062 17.246094 12.789062 17.707031 12.785156 C 18.0625 12.78125 18.417969 12.78125 18.773438 12.785156 C 18.941406 12.785156 19.113281 12.785156 19.285156 12.78125 C 19.519531 12.78125 19.757812 12.785156 19.996094 12.785156 C 20.066406 12.785156 20.136719 12.785156 20.210938 12.785156 C 20.523438 12.789062 20.707031 12.804688 20.957031 12.992188 C 21.136719 13.246094 21.1875 13.402344 21.183594 13.710938 C 20.9375 14.039062 20.808594 14.136719 20.394531 14.207031 C 20.261719 14.207031 20.125 14.207031 19.988281 14.207031 C 19.914062 14.207031 19.835938 14.207031 19.761719 14.207031 C 19.511719 14.207031 19.265625 14.207031 19.019531 14.207031 C 18.847656 14.207031 18.675781 14.207031 18.503906 14.207031 C 18.144531 14.207031 17.785156 14.203125 17.421875 14.203125 C 16.964844 14.199219 16.5 14.199219 16.039062 14.203125 C 15.683594 14.203125 15.328125 14.203125 14.976562 14.199219 C 14.804688 14.199219 14.632812 14.199219 14.464844 14.203125 C 14.226562 14.203125 13.988281 14.199219 13.75 14.199219 C 13.679688 14.199219 13.609375 14.199219 13.539062 14.199219 C 13.226562 14.195312 13.042969 14.175781 12.789062 13.992188 C 12.59375 13.710938 12.609375 13.519531 12.65625 13.183594 C 12.941406 12.765625 13.285156 12.78125 13.753906 12.785156 Z M 13.753906 12.785156 "/>
<path style=" stroke:none;fill-rule:nonzero;fill:rgb(54.509804%,78.823529%,19.607843%);fill-opacity:1;" d="M 27.246094 16.699219 C 27.796875 16.699219 28.347656 16.699219 28.917969 16.699219 C 28.917969 18.496094 28.917969 20.296875 28.917969 22.148438 C 28.363281 22.148438 27.816406 22.148438 27.246094 22.148438 C 27.246094 20.347656 27.246094 18.550781 27.246094 16.699219 Z M 27.246094 16.699219 "/>
<path style=" stroke:none;fill-rule:nonzero;fill:rgb(88.235294%,80%,72.941176%);fill-opacity:1;" d="M 12.214844 5.800781 C 12.222656 6.230469 12.230469 6.660156 12.230469 7.089844 C 12.234375 7.238281 12.234375 7.382812 12.238281 7.527344 C 12.238281 7.738281 12.238281 7.949219 12.242188 8.160156 C 12.242188 8.226562 12.246094 8.292969 12.246094 8.359375 C 12.246094 8.753906 12.207031 9.007812 11.953125 9.316406 C 11.550781 9.660156 11.214844 9.71875 10.703125 9.703125 C 10.636719 9.703125 10.566406 9.703125 10.496094 9.699219 C 10.285156 9.699219 10.070312 9.695312 9.855469 9.6875 C 9.707031 9.6875 9.5625 9.683594 9.417969 9.683594 C 9.0625 9.683594 8.703125 9.675781 8.347656 9.667969 C 8.753906 9.183594 9.1875 8.730469 9.636719 8.277344 C 9.707031 8.207031 9.777344 8.136719 9.851562 8.066406 C 10.003906 7.917969 10.152344 7.765625 10.300781 7.617188 C 10.53125 7.386719 10.761719 7.15625 10.988281 6.925781 C 11.136719 6.78125 11.28125 6.636719 11.425781 6.488281 C 11.496094 6.421875 11.566406 6.351562 11.636719 6.28125 C 11.730469 6.1875 11.730469 6.1875 11.832031 6.089844 C 11.910156 6.003906 11.910156 6.003906 12 5.921875 C 12.128906 5.800781 12.128906 5.800781 12.214844 5.800781 Z M 12.214844 5.800781 "/>
<path style=" stroke:none;fill-rule:nonzero;fill:rgb(93.72549%,90.196078%,85.490196%);fill-opacity:1;" d="M 13.007812 30.9375 C 13.503906 31.105469 13.828125 31.433594 14.0625 31.902344 C 14.109375 32.449219 14.128906 32.9375 13.800781 33.398438 C 13.410156 33.785156 13.085938 33.941406 12.542969 33.953125 C 12.097656 33.949219 11.851562 33.878906 11.511719 33.574219 C 11.09375 33.113281 11.042969 32.75 11.050781 32.144531 C 11.09375 31.691406 11.328125 31.460938 11.652344 31.175781 C 12.089844 30.867188 12.488281 30.898438 13.007812 30.9375 Z M 13.007812 30.9375 "/>
<path style=" stroke:none;fill-rule:nonzero;fill:rgb(94.901961%,38.823529%,29.803922%);fill-opacity:1;" d="M 41.152344 2.980469 C 41.597656 3.25 41.933594 3.542969 42.097656 4.042969 C 42.097656 4.535156 42.097656 5.027344 42.097656 5.535156 C 41.082031 5.535156 40.070312 5.535156 39.023438 5.535156 C 39.019531 5.289062 39.007812 5.035156 39.003906 4.78125 C 38.996094 4.703125 38.996094 4.621094 38.992188 4.542969 C 38.984375 3.988281 39.125 3.683594 39.515625 3.285156 C 40.003906 2.890625 40.550781 2.726562 41.152344 2.980469 Z M 41.152344 2.980469 "/>
<path style=" stroke:none;fill-rule:nonzero;fill:rgb(32.941176%,34.117647%,32.54902%);fill-opacity:1;" d="M 15.015625 18.769531 C 15.140625 18.769531 15.140625 18.769531 15.273438 18.769531 C 15.449219 18.769531 15.628906 18.769531 15.804688 18.769531 C 16.078125 18.769531 16.347656 18.769531 16.621094 18.765625 C 16.796875 18.765625 16.96875 18.765625 17.140625 18.765625 C 17.222656 18.765625 17.300781 18.761719 17.386719 18.761719 C 17.753906 18.769531 17.964844 18.777344 18.289062 18.964844 C 18.457031 19.160156 18.457031 19.160156 18.507812 19.46875 C 18.457031 19.777344 18.457031 19.777344 18.332031 19.96875 C 17.976562 20.214844 17.625 20.179688 17.199219 20.175781 C 17.109375 20.175781 17.019531 20.179688 16.929688 20.179688 C 16.742188 20.179688 16.558594 20.179688 16.371094 20.179688 C 16.082031 20.175781 15.800781 20.179688 15.511719 20.183594 C 15.332031 20.183594 15.152344 20.183594 14.96875 20.183594 C 14.882812 20.183594 14.796875 20.183594 14.710938 20.183594 C 14.121094 20.179688 14.121094 20.179688 13.832031 19.925781 C 13.667969 19.597656 13.695312 19.417969 13.800781 19.074219 C 14.113281 18.703125 14.566406 18.769531 15.015625 18.769531 Z M 15.015625 18.769531 "/>
<path style=" stroke:none;fill-rule:nonzero;fill:rgb(32.54902%,33.72549%,31.764706%);fill-opacity:1;" d="M 28.871094 32.835938 C 28.992188 32.835938 28.992188 32.835938 29.113281 32.832031 C 29.246094 32.832031 29.246094 32.832031 29.371094 32.832031 C 29.507812 32.832031 29.507812 32.832031 29.644531 32.832031 C 29.832031 32.832031 30.019531 32.832031 30.207031 32.832031 C 30.492188 32.832031 30.777344 32.832031 31.0625 32.828125 C 31.246094 32.828125 31.429688 32.828125 31.609375 32.828125 C 31.738281 32.828125 31.738281 32.828125 31.871094 32.824219 C 32.460938 32.832031 32.460938 32.832031 32.746094 33.027344 C 32.929688 33.3125 32.917969 33.511719 32.871094 33.839844 C 32.746094 34.03125 32.746094 34.03125 32.519531 34.191406 C 32.222656 34.242188 31.933594 34.242188 31.636719 34.238281 C 31.503906 34.242188 31.503906 34.242188 31.375 34.242188 C 31.191406 34.242188 31.007812 34.242188 30.828125 34.242188 C 30.550781 34.238281 30.269531 34.242188 29.992188 34.246094 C 29.8125 34.246094 29.636719 34.246094 29.460938 34.246094 C 29.375 34.246094 29.292969 34.246094 29.207031 34.246094 C 28.808594 34.242188 28.621094 34.230469 28.289062 33.988281 C 28.125 33.75 28.125 33.75 28.125 33.429688 C 28.257812 32.984375 28.40625 32.839844 28.871094 32.835938 Z M 28.871094 32.835938 "/>
<path style=" stroke:none;fill-rule:nonzero;fill:rgb(9.411765%,67.843137%,85.882353%);fill-opacity:1;" d="M 4.746094 30.761719 C 4.746094 31.863281 4.746094 32.964844 4.746094 34.101562 C 4.472656 34.089844 4.199219 34.082031 3.917969 34.066406 C 3.792969 34.0625 3.792969 34.0625 3.660156 34.058594 C 3.59375 34.058594 3.527344 34.050781 3.460938 34.050781 C 3.390625 34.050781 3.324219 34.046875 3.25 34.042969 C 3.074219 34.011719 3.074219 34.011719 2.902344 33.839844 C 2.878906 33.5625 2.878906 33.5625 2.878906 33.210938 C 2.878906 33.148438 2.878906 33.089844 2.878906 33.027344 C 2.878906 32.894531 2.878906 32.761719 2.878906 32.632812 C 2.878906 32.433594 2.878906 32.230469 2.878906 32.03125 C 2.878906 31.902344 2.878906 31.777344 2.878906 31.652344 C 2.878906 31.535156 2.878906 31.421875 2.878906 31.300781 C 2.902344 31.027344 2.902344 31.027344 3.074219 30.847656 C 3.28125 30.816406 3.28125 30.816406 3.527344 30.796875 C 3.605469 30.789062 3.6875 30.78125 3.769531 30.777344 C 4.097656 30.757812 4.421875 30.761719 4.746094 30.761719 Z M 4.746094 30.761719 "/>
<path style=" stroke:none;fill-rule:nonzero;fill:rgb(9.019608%,68.235294%,86.27451%);fill-opacity:1;" d="M 5.800781 36.824219 C 6.121094 36.933594 6.1875 37.050781 6.390625 37.316406 C 6.910156 37.988281 7.476562 38.535156 8.175781 39.023438 C 8.035156 39.386719 7.773438 39.601562 7.480469 39.839844 C 7.410156 39.902344 7.410156 39.902344 7.339844 39.964844 C 6.996094 40.257812 6.996094 40.257812 6.777344 40.246094 C 6.371094 40.074219 6.078125 39.699219 5.769531 39.390625 C 5.644531 39.261719 5.511719 39.132812 5.378906 39.003906 C 5.253906 38.878906 5.253906 38.878906 5.128906 38.757812 C 5.054688 38.679688 4.976562 38.605469 4.902344 38.527344 C 4.746094 38.320312 4.746094 38.320312 4.753906 38.136719 C 4.835938 37.964844 4.925781 37.832031 5.054688 37.683594 C 5.117188 37.609375 5.117188 37.609375 5.183594 37.53125 C 5.230469 37.480469 5.277344 37.425781 5.324219 37.375 C 5.367188 37.320312 5.414062 37.269531 5.460938 37.214844 C 5.574219 37.085938 5.6875 36.957031 5.800781 36.824219 Z M 5.800781 36.824219 "/>
<path style=" stroke:none;fill-rule:nonzero;fill:rgb(9.019608%,68.235294%,86.27451%);fill-opacity:1;" d="M 6.863281 24.613281 C 7.035156 24.699219 7.167969 24.792969 7.316406 24.917969 C 7.363281 24.960938 7.417969 25.003906 7.46875 25.050781 C 7.542969 25.117188 7.542969 25.117188 7.625 25.1875 C 7.679688 25.230469 7.730469 25.277344 7.785156 25.324219 C 7.914062 25.433594 8.042969 25.550781 8.175781 25.664062 C 8.046875 25.96875 7.902344 26.109375 7.636719 26.300781 C 6.980469 26.796875 6.449219 27.363281 5.976562 28.035156 C 5.613281 27.898438 5.398438 27.636719 5.160156 27.347656 C 5.097656 27.277344 5.097656 27.277344 5.035156 27.207031 C 4.742188 26.859375 4.742188 26.859375 4.753906 26.644531 C 4.925781 26.234375 5.300781 25.941406 5.609375 25.636719 C 5.738281 25.503906 5.867188 25.375 5.996094 25.242188 C 6.078125 25.15625 6.160156 25.078125 6.242188 24.992188 C 6.320312 24.917969 6.394531 24.839844 6.472656 24.765625 C 6.679688 24.609375 6.679688 24.609375 6.863281 24.613281 Z M 6.863281 24.613281 "/>
<path style=" stroke:none;fill-rule:nonzero;fill:rgb(32.941176%,75.686275%,92.941176%);fill-opacity:1;" d="M 24.167969 18.984375 C 24.722656 18.984375 25.269531 18.984375 25.839844 18.984375 C 25.839844 20.027344 25.839844 21.074219 25.839844 22.148438 C 25.289062 22.148438 24.738281 22.148438 24.167969 22.148438 C 24.167969 21.105469 24.167969 20.058594 24.167969 18.984375 Z M 24.167969 18.984375 "/>
<path style=" stroke:none;fill-rule:nonzero;fill:rgb(89.411765%,93.72549%,96.078431%);fill-opacity:1;" d="M 39.023438 6.855469 C 40.039062 6.855469 41.054688 6.855469 42.097656 6.855469 C 42.097656 7.292969 42.097656 7.726562 42.097656 8.175781 C 41.082031 8.175781 40.070312 8.175781 39.023438 8.175781 C 39.023438 7.738281 39.023438 7.304688 39.023438 6.855469 Z M 39.023438 6.855469 "/>
<path style=" stroke:none;fill-rule:nonzero;fill:rgb(32.941176%,34.509804%,32.54902%);fill-opacity:1;" d="M 25.964844 32.828125 C 26.105469 32.824219 26.105469 32.824219 26.246094 32.816406 C 26.910156 32.816406 26.910156 32.816406 27.261719 33.074219 C 27.421875 33.308594 27.421875 33.308594 27.425781 33.628906 C 27.324219 33.960938 27.273438 34.019531 26.980469 34.191406 C 26.648438 34.246094 26.316406 34.234375 25.976562 34.234375 C 25.839844 34.238281 25.839844 34.238281 25.699219 34.242188 C 25.035156 34.242188 25.035156 34.242188 24.679688 33.988281 C 24.519531 33.75 24.519531 33.75 24.515625 33.433594 C 24.738281 32.722656 25.332031 32.824219 25.964844 32.828125 Z M 25.964844 32.828125 "/>
<path style=" stroke:none;fill-rule:nonzero;fill:rgb(32.941176%,34.509804%,32.54902%);fill-opacity:1;" d="M 11.007812 18.761719 C 11.09375 18.761719 11.183594 18.761719 11.273438 18.757812 C 11.367188 18.761719 11.457031 18.761719 11.550781 18.765625 C 11.691406 18.761719 11.691406 18.761719 11.832031 18.757812 C 12.230469 18.761719 12.496094 18.769531 12.847656 18.964844 C 13.007812 19.160156 13.007812 19.160156 13.058594 19.46875 C 13 19.824219 12.9375 19.90625 12.65625 20.128906 C 12.425781 20.175781 12.425781 20.175781 12.171875 20.175781 C 12.078125 20.175781 11.988281 20.175781 11.890625 20.175781 C 11.792969 20.175781 11.699219 20.175781 11.601562 20.171875 C 11.457031 20.175781 11.457031 20.175781 11.3125 20.175781 C 11.21875 20.175781 11.128906 20.175781 11.03125 20.175781 C 10.945312 20.175781 10.863281 20.175781 10.777344 20.175781 C 10.480469 20.113281 10.378906 20.011719 10.195312 19.777344 C 10.152344 19.46875 10.152344 19.46875 10.195312 19.160156 C 10.445312 18.839844 10.609375 18.765625 11.007812 18.761719 Z M 11.007812 18.761719 "/>
<path style=" stroke:none;fill-rule:nonzero;fill:rgb(89.803922%,32.54902%,22.745098%);fill-opacity:1;" d="M 40.078125 2.988281 C 40.078125 3.828125 40.078125 4.667969 40.078125 5.535156 C 39.730469 5.535156 39.378906 5.535156 39.023438 5.535156 C 39.015625 5.285156 39.003906 5.03125 39.003906 4.78125 C 39 4.707031 38.996094 4.636719 38.992188 4.566406 C 38.984375 4.078125 39.050781 3.8125 39.375 3.425781 C 39.800781 2.988281 39.800781 2.988281 40.078125 2.988281 Z M 40.078125 2.988281 "/>
<path style=" stroke:none;fill-rule:nonzero;fill:rgb(33.72549%,34.901961%,33.333333%);fill-opacity:1;" d="M 34.453125 32.871094 C 34.710938 33.050781 34.710938 33.050781 34.894531 33.308594 C 34.898438 33.648438 34.878906 33.839844 34.65625 34.097656 C 34.386719 34.21875 34.21875 34.230469 33.925781 34.191406 C 33.714844 34.050781 33.714844 34.050781 33.574219 33.839844 C 33.523438 33.488281 33.519531 33.304688 33.714844 33.007812 C 33.992188 32.828125 34.128906 32.8125 34.453125 32.871094 Z M 34.453125 32.871094 "/>
<path style=" stroke:none;fill-rule:nonzero;fill:rgb(33.72549%,34.901961%,33.333333%);fill-opacity:1;" d="M 26.105469 26.894531 C 26.363281 27.074219 26.363281 27.074219 26.542969 27.332031 C 26.550781 27.671875 26.53125 27.863281 26.304688 28.121094 C 26.039062 28.242188 25.871094 28.253906 25.574219 28.214844 C 25.363281 28.074219 25.363281 28.074219 25.222656 27.863281 C 25.175781 27.511719 25.171875 27.328125 25.363281 27.03125 C 25.644531 26.851562 25.78125 26.835938 26.105469 26.894531 Z M 26.105469 26.894531 "/>
<path style=" stroke:none;fill-rule:nonzero;fill:rgb(33.72549%,35.294118%,33.333333%);fill-opacity:1;" d="M 20.214844 18.894531 C 20.386719 18.996094 20.386719 18.996094 20.480469 19.160156 C 20.523438 19.503906 20.53125 19.695312 20.339844 19.988281 C 20.042969 20.179688 19.859375 20.183594 19.511719 20.128906 C 19.292969 19.945312 19.292969 19.945312 19.160156 19.6875 C 19.160156 19.355469 19.175781 19.160156 19.386719 18.894531 C 19.691406 18.769531 19.898438 18.816406 20.214844 18.894531 Z M 20.214844 18.894531 "/>
<path style=" stroke:none;fill-rule:nonzero;fill:rgb(33.72549%,35.294118%,33.333333%);fill-opacity:1;" d="M 11.863281 12.917969 C 12.035156 13.019531 12.035156 13.019531 12.128906 13.183594 C 12.171875 13.527344 12.183594 13.71875 11.992188 14.011719 C 11.691406 14.203125 11.511719 14.207031 11.160156 14.152344 C 10.941406 13.96875 10.941406 13.96875 10.808594 13.710938 C 10.808594 13.378906 10.828125 13.183594 11.039062 12.917969 C 11.34375 12.792969 11.550781 12.839844 11.863281 12.917969 Z M 11.863281 12.917969 "/>
<path style=" stroke:none;fill-rule:nonzero;fill:rgb(34.117647%,35.686275%,33.72549%);fill-opacity:1;" d="M 36.472656 5.886719 C 36.707031 6.097656 36.808594 6.238281 36.875 6.546875 C 36.800781 6.882812 36.660156 7.011719 36.386719 7.207031 C 36.074219 7.207031 35.871094 7.175781 35.601562 7.019531 C 35.449219 6.75 35.472656 6.542969 35.507812 6.238281 C 35.761719 5.84375 36.027344 5.816406 36.472656 5.886719 Z M 36.472656 5.886719 "/>
<path style=" stroke:none;fill-rule:nonzero;fill:rgb(34.117647%,35.686275%,33.72549%);fill-opacity:1;" d="M 29.53125 5.886719 C 29.765625 6.097656 29.863281 6.238281 29.933594 6.546875 C 29.855469 6.882812 29.714844 7.011719 29.441406 7.207031 C 29.132812 7.207031 28.925781 7.175781 28.660156 7.019531 C 28.503906 6.75 28.527344 6.542969 28.566406 6.238281 C 28.816406 5.84375 29.082031 5.816406 29.53125 5.886719 Z M 29.53125 5.886719 "/>
<path style=" stroke:none;fill-rule:nonzero;fill:rgb(34.117647%,35.686275%,33.72549%);fill-opacity:1;" d="M 22.589844 5.886719 C 22.824219 6.097656 22.921875 6.238281 22.988281 6.546875 C 22.914062 6.882812 22.773438 7.011719 22.5 7.207031 C 22.191406 7.207031 21.984375 7.175781 21.714844 7.019531 C 21.5625 6.75 21.585938 6.542969 21.621094 6.238281 C 21.871094 5.84375 22.140625 5.816406 22.589844 5.886719 Z M 22.589844 5.886719 "/>
<path style=" stroke:none;fill-rule:nonzero;fill:rgb(34.117647%,35.686275%,33.72549%);fill-opacity:1;" d="M 15.644531 5.886719 C 15.878906 6.097656 15.980469 6.238281 16.046875 6.546875 C 15.96875 6.882812 15.828125 7.011719 15.558594 7.207031 C 15.246094 7.207031 15.042969 7.175781 14.769531 7.019531 C 14.621094 6.75 14.644531 6.542969 14.675781 6.238281 C 14.929688 5.84375 15.195312 5.816406 15.644531 5.886719 Z M 15.644531 5.886719 "/>
<path style=" stroke:none;fill-rule:nonzero;fill:rgb(66.666667%,81.176471%,88.627451%);fill-opacity:1;" d="M 39.023438 6.855469 C 39.371094 6.855469 39.722656 6.855469 40.078125 6.855469 C 40.078125 7.292969 40.078125 7.726562 40.078125 8.175781 C 39.730469 8.175781 39.378906 8.175781 39.023438 8.175781 C 39.023438 7.738281 39.023438 7.304688 39.023438 6.855469 Z M 39.023438 6.855469 "/>
</g>
</svg>
